SplineFontDB: 3.2
FontName: NewHall-Medium
FullName: NewHall Medium 
FamilyName: NewHall
Weight: Medium
Copyright: (c) RISC OS Developments Ltd, released under Apache License 2.0
Version: 1
ItalicAngle: 0
UnderlinePosition: 0
UnderlineWidth: 0
Ascent: 400
Descent: 100
InvalidEm: 0
LayerCount: 2
Layer: 0 0 "Back" 1
Layer: 1 0 "Fore" 0
StyleMap: 0x0040
FSType: 0
OS2Version: 0
OS2_WeightWidthSlopeOnly: 0
OS2_UseTypoMetrics: 0
CreationTime: 1653360705
ModificationTime: 1653360706
PfmFamily: 17
TTFWeight: 500
TTFWidth: 5
LineGap: 45
VLineGap: 45
OS2TypoAscent: 0
OS2TypoAOffset: 1
OS2TypoDescent: 0
OS2TypoDOffset: 1
OS2TypoLinegap: 45
OS2WinAscent: 0
OS2WinAOffset: 1
OS2WinDescent: 0
OS2WinDOffset: 1
HheadAscent: 0
HheadAOffset: 1
HheadDescent: 0
HheadDOffset: 1
DEI: 91125
Encoding: Custom
UnicodeInterp: none
NameList: AGL For New Fonts
DisplaySize: -24
AntiAlias: 1
FitToEm: 0
BeginChars: 256 209

StartChar: exclam
Encoding: 33 33 1
Width: 148
VWidth: 0
Flags: HMW
LayerCount: 2
Fore
SplineSet
97 45 m 0
 109 33 109 13 97 1 c 0
 85 -11 65 -11 53 1 c 0
 41 13 41 33 53 45 c 0
 65 57 85 57 97 45 c 0
83 95 m 0
 67 95 l 0
 60 314 24 329 58 363 c 0
 66 371 84 371 92 363 c 0
 126 329 90 314 83 95 c 0
EndSplineSet
EndChar

StartChar: quotedbl
Encoding: 34 34 2
Width: 194
VWidth: 0
Flags: HMW
LayerCount: 2
Fore
SplineSet
136 249 m 0
 129 318 113 348 126 361 c 0
 137 372 149 372 160 361 c 0
 173 348 157 318 150 249 c 0
 136 249 l 0
60 249 m 0
 46 249 l 0
 39 318 23 348 36 361 c 0
 47 372 59 372 70 361 c 0
 83 348 67 318 60 249 c 0
EndSplineSet
EndChar

StartChar: numbersign
Encoding: 35 35 3
Width: 278
VWidth: 0
Flags: HMW
LayerCount: 2
Fore
SplineSet
31 236 m 0
 89 236 l 0
 106 345 l 0
 136 345 l 0
 119 236 l 0
 184 236 l 0
 201 345 l 0
 231 345 l 0
 214 236 l 0
 262 236 l 0
 262 206 l 0
 210 206 l 0
 200 140 l 0
 248 140 l 0
 248 110 l 0
 195 110 l 0
 178 0 l 0
 148 0 l 0
 165 110 l 0
 100 110 l 0
 83 0 l 0
 53 0 l 0
 70 110 l 0
 17 110 l 0
 17 140 l 0
 75 140 l 0
 84 206 l 0
 31 206 l 0
 31 236 l 0
105 140 m 0
 170 140 l 0
 180 206 l 0
 115 206 l 0
 105 140 l 0
EndSplineSet
EndChar

StartChar: dollar
Encoding: 36 36 4
Width: 278
VWidth: 0
Flags: HMW
LayerCount: 2
Fore
SplineSet
125 205 m 0
 125 330 l 0
 99 327 91 325 76 310 c 0
 54 288 55 249 73 231 c 0
 87 217 102 214 125 205 c 0
147 11 m 0
 166 11 185 17 199 31 c 0
 226 58 226 99 204 121 c 0
 188 137 166 142 147 149 c 0
 147 11 l 0
125 -8 m 0
 94 -9 65 0 44 21 c 0
 15 50 15 84 33 102 c 0
 44 113 64 113 77 100 c 0
 87 90 87 74 73 60 c 0
 68 55 45 50 66 29 c 0
 77 18 102 10 125 11 c 0
 125 155 l 0
 92 167 69 175 50 194 c 0
 19 225 19 285 53 319 c 0
 76 342 99 346 125 348 c 0
 125 402 l 0
 147 402 l 0
 147 348 l 0
 180 348 199 340 217 322 c 0
 245 294 239 261 227 249 c 0
 216 238 200 238 188 250 c 0
 176 262 176 275 193 292 c 0
 204 303 204 306 194 316 c 0
 182 328 166 330 147 330 c 0
 147 199 l 0
 177 188 206 182 229 159 c 0
 262 126 262 61 223 22 c 0
 203 2 174 -8 147 -8 c 0
 147 -65 l 0
 125 -65 l 0
 125 -8 l 0
EndSplineSet
EndChar

StartChar: percent
Encoding: 37 37 5
Width: 416
VWidth: 0
Flags: HMW
LayerCount: 2
Fore
SplineSet
340 36 m 0
 380 76 390 140 369 161 c 0
 353 177 334 177 316 159 c 0
 285 128 242 48 266 24 c 0
 282 8 312 8 340 36 c 0
356 31 m 0
 314 -11 268 -11 240 17 c 0
 215 42 220 108 268 156 c 0
 309 197 355 197 380 172 c 0
 408 144 398 73 356 31 c 0
192 299 m 0
 201 263 182 215 151 183 c 0
 111 144 65 144 38 171 c 0
 15 194 15 259 67 311 c 0
 111 355 149 355 177 327 c 0
 204 300 266 303 302 354 c 0
 325 354 l 0
 116 -9 l 0
 93 -9 l 0
 277 312 l 0
 249 294 222 295 192 299 c 0
177 306 m 0
 163 312 149 324 143 334 c 0
 136 331 126 327 118 319 c 0
 91 292 37 204 65 176 c 0
 77 164 111 164 141 194 c 0
 159 212 188 259 177 306 c 0
EndSplineSet
EndChar

StartChar: ampersand
Encoding: 38 38 6
Width: 407
VWidth: 0
Flags: HMW
LayerCount: 2
Fore
SplineSet
210 335 m 0
 191 354 169 354 150 335 c 0
 129 314 131 278 160 223 c 0
 173 228 186 234 197 245 c 0
 221 269 228 317 210 335 c 0
217 43 m 0
 178 90 147 137 122 186 c 0
 113 181 105 178 94 167 c 0
 67 140 67 85 106 46 c 0
 136 16 173 12 217 43 c 0
379 182 m 0
 364 180 348 181 331 164 c 0
 307 140 298 97 266 63 c 0
 291 28 332 24 348 40 c 0
 359 51 363 71 367 82 c 0
 388 79 l 0
 385 54 376 32 358 14 c 0
 328 -16 280 -19 230 28 c 0
 169 -17 97 -20 58 19 c 0
 16 61 16 122 60 166 c 0
 77 183 96 192 114 202 c 0
 110 210 107 218 104 227 c 0
 92 263 91 310 115 339 c 0
 135 364 175 375 206 366 c 0
 228 359 247 342 254 321 c 0
 260 302 256 280 246 263 c 0
 230 235 199 221 168 207 c 0
 191 161 218 120 252 77 c 0
 284 115 298 159 285 172 c 0
 273 184 242 182 238 182 c 0
 238 200 l 0
 379 200 l 0
 379 182 l 0
EndSplineSet
EndChar

StartChar: quotesingle
Encoding: 39 39 7
Width: 102
VWidth: 0
Flags: HMW
LayerCount: 2
Fore
SplineSet
60 249 m 0
 46 249 l 0
 39 318 23 348 36 361 c 0
 47 372 59 372 70 361 c 0
 83 348 67 318 60 249 c 0
EndSplineSet
EndChar

StartChar: parenleft
Encoding: 40 40 8
Width: 166
VWidth: 0
Flags: HMW
LayerCount: 2
Fore
SplineSet
18 151 m 0
 18 229 53 288 95 330 c 0
 111 346 128 360 140 369 c 0
 140 352 l 0
 97 310 59 281 59 150 c 0
 59 74 69 20 111 -22 c 0
 120 -31 133 -41 140 -45 c 0
 140 -62 l 0
 126 -54 109 -43 89 -23 c 0
 43 23 18 86 18 151 c 0
EndSplineSet
EndChar

StartChar: parenright
Encoding: 41 41 9
Width: 166
VWidth: 0
Flags: HMW
LayerCount: 2
Fore
SplineSet
78 -23 m 0
 58 -43 41 -54 27 -62 c 0
 27 -45 l 0
 34 -41 47 -31 56 -22 c 0
 98 20 108 74 108 150 c 0
 108 281 70 310 27 352 c 0
 27 369 l 0
 39 360 56 346 72 330 c 0
 114 288 149 229 149 151 c 0
 149 86 124 23 78 -23 c 0
EndSplineSet
EndChar

StartChar: asterisk
Encoding: 42 42 10
Width: 250
VWidth: 0
Flags: HMW
LayerCount: 2
Fore
SplineSet
129 247 m 0
 125 214 152 173 138 159 c 0
 130 151 119 151 111 159 c 0
 97 173 125 214 121 247 c 0
 115 250 l 0
 96 242 83 228 72 217 c 0
 52 197 41 197 34 204 c 0
 26 212 26 223 32 229 c 0
 45 242 84 239 111 257 c 0
 111 265 l 0
 84 283 45 280 32 293 c 0
 26 299 26 310 34 318 c 0
 41 325 52 325 72 305 c 0
 83 294 96 280 115 272 c 0
 121 275 l 0
 125 308 97 349 111 363 c 0
 119 371 130 371 138 363 c 0
 152 349 125 308 129 275 c 0
 136 272 l 0
 154 280 167 294 178 305 c 0
 198 325 209 325 216 318 c 0
 224 310 224 299 218 293 c 0
 205 280 166 283 139 265 c 0
 139 257 l 0
 166 239 205 242 218 229 c 0
 224 223 224 212 216 204 c 0
 209 197 198 197 178 217 c 0
 167 228 154 242 136 250 c 0
 129 247 l 0
EndSplineSet
EndChar

StartChar: plus
Encoding: 43 43 11
Width: 303
VWidth: 0
Flags: HMW
LayerCount: 2
Fore
SplineSet
26 139 m 0
 133 139 l 0
 133 246 l 0
 171 246 l 0
 171 139 l 0
 278 139 l 0
 278 101 l 0
 171 101 l 0
 171 -7 l 0
 133 -7 l 0
 133 101 l 0
 26 101 l 0
 26 139 l 0
EndSplineSet
EndChar

StartChar: comma
Encoding: 44 44 12
Width: 139
VWidth: 0
Flags: HMW
LayerCount: 2
Fore
SplineSet
48 -92 m 0
 36 -76 l 0
 63 -56 86 -35 86 -5 c 0
 73 -10 61 -9 52 0 c 0
 40 12 41 34 54 47 c 0
 65 58 86 57 101 42 c 0
 120 23 119 -27 80 -66 c 0
 71 -75 57 -86 48 -92 c 0
EndSplineSet
EndChar

StartChar: hyphen
Encoding: 45 45 13
Width: 166
VWidth: 0
Flags: HMW
LayerCount: 2
Fore
SplineSet
21 139 m 0
 146 139 l 0
 146 101 l 0
 21 101 l 0
 21 139 l 0
EndSplineSet
EndChar

StartChar: period
Encoding: 46 46 14
Width: 139
VWidth: 0
Flags: HMW
LayerCount: 2
Fore
SplineSet
53 1 m 0
 41 13 41 33 53 45 c 0
 65 57 85 57 97 45 c 0
 109 33 109 13 97 1 c 0
 85 -11 65 -11 53 1 c 0
EndSplineSet
EndChar

StartChar: slash
Encoding: 47 47 15
Width: 139
VWidth: 0
Flags: HMW
LayerCount: 2
Fore
SplineSet
123 369 m 0
 151 369 l 0
 16 -8 l 0
 -12 -8 l 0
 123 369 l 0
EndSplineSet
EndChar

StartChar: zero
Encoding: 48 48 16
Width: 278
VWidth: 0
Flags: HMW
LayerCount: 2
Fore
SplineSet
174 26 m 0
 194 46 205 80 205 170 c 0
 205 260 194 294 174 314 c 0
 153 335 125 335 104 314 c 0
 84 294 73 260 73 170 c 0
 73 80 84 46 103 27 c 0
 126 4 152 4 174 26 c 0
207 20 m 0
 169 -18 109 -18 71 20 c 0
 47 44 21 95 21 173 c 0
 21 250 47 301 71 325 c 0
 109 363 169 363 207 325 c 0
 231 301 257 250 257 173 c 0
 257 95 231 44 207 20 c 0
EndSplineSet
EndChar

StartChar: one
Encoding: 49 49 17
Width: 278
VWidth: 0
Flags: HMW
LayerCount: 2
Fore
SplineSet
176 52 m 0
 176 18 192 18 232 18 c 0
 247 18 l 0
 247 0 l 0
 51 0 l 0
 51 18 l 0
 69 18 l 0
 109 18 125 18 125 52 c 0
 125 262 l 0
 125 287 121 296 69 296 c 0
 51 296 l 0
 51 314 l 0
 92 314 130 328 158 353 c 0
 176 353 l 0
 176 52 l 0
EndSplineSet
EndChar

StartChar: two
Encoding: 50 50 18
Width: 278
VWidth: 0
Flags: HMW
LayerCount: 2
Fore
SplineSet
244 -2 m 0
 169 1 86 1 17 -2 c 0
 17 13 l 0
 51 58 102 107 125 131 c 0
 202 208 211 281 179 313 c 0
 152 340 100 340 71 311 c 0
 52 292 52 278 59 271 c 0
 69 261 75 264 84 255 c 0
 94 245 94 223 84 213 c 0
 73 202 49 202 36 215 c 0
 18 233 18 289 50 321 c 0
 92 363 180 363 218 325 c 0
 260 283 261 218 202 159 c 0
 160 117 113 91 68 43 c 0
 182 43 l 0
 226 43 226 56 228 72 c 0
 232 105 l 0
 252 105 l 0
 244 -2 l 0
EndSplineSet
EndChar

StartChar: three
Encoding: 51 51 19
Width: 278
VWidth: 0
Flags: HMW
LayerCount: 2
Fore
SplineSet
67 35 m 0
 95 7 152 7 174 29 c 0
 205 60 205 127 178 154 c 0
 151 181 108 171 104 171 c 0
 82 171 82 194 104 194 c 0
 110 194 149 183 176 210 c 0
 199 233 199 294 172 321 c 0
 154 339 107 339 85 317 c 0
 72 304 72 299 84 287 c 0
 100 271 100 259 87 246 c 0
 75 234 59 234 46 247 c 0
 30 263 29 293 56 320 c 0
 100 364 177 364 218 323 c 0
 248 293 248 239 217 208 c 0
 203 194 190 189 173 181 c 0
 190 177 208 172 223 157 c 0
 258 122 258 62 223 27 c 0
 175 -21 87 -18 45 25 c 0
 15 54 15 87 34 106 c 0
 49 121 67 121 78 110 c 0
 91 97 91 80 79 68 c 0
 73 62 49 53 67 35 c 0
EndSplineSet
EndChar

StartChar: four
Encoding: 52 52 20
Width: 278
VWidth: 0
Flags: HMW
LayerCount: 2
Fore
SplineSet
251 18 m 0
 251 0 l 0
 103 0 l 0
 103 18 l 0
 155 18 157 26 157 52 c 0
 157 86 l 0
 14 86 l 0
 14 111 l 0
 187 353 l 0
 205 353 l 0
 205 111 l 0
 264 111 l 0
 264 86 l 0
 205 86 l 0
 205 52 l 0
 205 26 207 18 251 18 c 0
157 270 m 0
 43 111 l 0
 157 111 l 0
 157 270 l 0
EndSplineSet
EndChar

StartChar: five
Encoding: 53 53 21
Width: 278
VWidth: 0
Flags: HMW
LayerCount: 2
Fore
SplineSet
218 349 m 0
 242 362 251 342 218 314 c 0
 185 284 111 283 79 299 c 0
 70 203 l 0
 116 229 184 226 221 189 c 0
 259 151 259 67 217 25 c 0
 173 -19 83 -19 41 23 c 0
 16 48 16 88 31 103 c 0
 46 118 65 118 79 104 c 0
 89 94 89 77 81 69 c 0
 75 63 46 49 66 29 c 0
 92 3 145 3 170 28 c 0
 207 65 207 148 178 177 c 0
 148 207 97 205 69 182 c 0
 69 146 35 144 34 165 c 0
 34 173 41 184 46 189 c 0
 52 248 58 306 60 353 c 0
 121 338 182 330 218 349 c 0
EndSplineSet
EndChar

StartChar: six
Encoding: 54 54 22
Width: 278
VWidth: 0
Flags: HMW
LayerCount: 2
Fore
SplineSet
229 184 m 0
 267 146 267 65 229 27 c 0
 183 -19 109 -19 67 23 c 0
 -1 91 7 242 84 319 c 0
 128 363 199 363 233 329 c 0
 254 308 254 280 243 269 c 0
 228 254 210 253 199 264 c 0
 187 276 187 298 196 307 c 0
 203 315 202 320 198 324 c 0
 181 341 147 340 117 310 c 0
 83 276 74 214 74 161 c 0
 109 221 191 222 229 184 c 0
102 167 m 0
 70 135 70 61 102 29 c 0
 126 5 162 5 180 23 c 0
 216 59 214 140 186 168 c 0
 163 191 126 191 102 167 c 0
EndSplineSet
EndChar

StartChar: seven
Encoding: 55 55 23
Width: 278
VWidth: 0
Flags: HMW
LayerCount: 2
Fore
SplineSet
223 304 m 0
 106 304 l 0
 63 304 66 297 58 266 c 0
 48 225 l 0
 30 230 l 0
 44 352 l 0
 101 346 182 344 254 352 c 0
 254 334 l 0
 220 256 184 178 172 127 c 0
 158 63 178 20 157 -1 c 0
 148 -10 126 -12 113 0 c 0
 91 23 110 102 223 304 c 0
EndSplineSet
EndChar

StartChar: eight
Encoding: 56 56 24
Width: 278
VWidth: 0
Flags: HMW
LayerCount: 2
Fore
SplineSet
194 313 m 0
 167 340 117 340 90 313 c 0
 67 290 67 255 91 231 c 0
 106 216 131 207 166 197 c 0
 219 227 217 290 194 313 c 0
116 160 m 0
 105 155 92 149 82 139 c 0
 51 108 51 57 74 34 c 0
 106 2 169 2 205 38 c 0
 227 60 227 97 201 123 c 0
 177 147 136 152 116 160 c 0
97 170 m 0
 84 176 75 180 63 192 c 0
 29 226 29 284 67 322 c 0
 108 363 181 363 219 325 c 0
 249 295 249 246 216 213 c 0
 206 203 195 196 187 190 c 0
 200 183 214 179 230 163 c 0
 266 127 266 60 232 26 c 0
 187 -19 87 -19 46 22 c 0
 13 55 13 107 43 137 c 0
 58 152 78 162 97 170 c 0
EndSplineSet
EndChar

StartChar: nine
Encoding: 57 57 25
Width: 278
VWidth: 0
Flags: HMW
LayerCount: 2
Fore
SplineSet
92 177 m 0
 115 154 152 154 176 178 c 0
 208 210 208 284 176 316 c 0
 152 340 116 340 98 322 c 0
 62 286 64 205 92 177 c 0
204 184 m 0
 169 124 87 123 49 161 c 0
 11 199 11 280 49 318 c 0
 95 364 169 364 211 322 c 0
 279 254 271 103 194 26 c 0
 150 -18 79 -18 45 16 c 0
 24 37 24 65 35 76 c 0
 50 91 68 92 79 81 c 0
 91 69 91 47 82 38 c 0
 75 30 76 25 80 21 c 0
 97 4 131 5 161 35 c 0
 195 69 204 131 204 184 c 0
EndSplineSet
EndChar

StartChar: colon
Encoding: 58 58 26
Width: 139
VWidth: 0
Flags: HMW
LayerCount: 2
Fore
SplineSet
97 1 m 0
 85 -11 65 -11 53 1 c 0
 41 13 41 33 53 45 c 0
 65 57 85 57 97 45 c 0
 109 33 109 13 97 1 c 0
97 221 m 0
 109 209 109 189 97 177 c 0
 85 165 65 165 53 177 c 0
 41 189 41 209 53 221 c 0
 65 233 85 233 97 221 c 0
EndSplineSet
EndChar

StartChar: semicolon
Encoding: 59 59 27
Width: 139
VWidth: 0
Flags: HMW
LayerCount: 2
Fore
SplineSet
97 177 m 0
 85 165 65 165 53 177 c 0
 41 189 41 209 53 221 c 0
 65 233 85 233 97 221 c 0
 109 209 109 189 97 177 c 0
36 -76 m 0
 63 -56 86 -35 86 -5 c 0
 73 -10 62 -9 53 0 c 0
 40 13 40 32 55 47 c 0
 67 59 84 59 101 42 c 0
 120 23 119 -27 80 -66 c 0
 71 -75 57 -86 48 -92 c 0
 36 -76 l 0
EndSplineSet
EndChar

StartChar: less
Encoding: 60 60 28
Width: 303
VWidth: 0
Flags: HMW
LayerCount: 2
Fore
SplineSet
25 139 m 0
 279 252 l 0
 279 214 l 0
 68 120 l 0
 279 24 l 0
 279 -14 l 0
 25 101 l 0
 25 139 l 0
EndSplineSet
EndChar

StartChar: equal
Encoding: 61 61 29
Width: 303
VWidth: 0
Flags: HMW
LayerCount: 2
Fore
SplineSet
278 52 m 0
 26 52 l 0
 26 90 l 0
 278 90 l 0
 278 52 l 0
278 187 m 0
 278 149 l 0
 26 149 l 0
 26 187 l 0
 278 187 l 0
EndSplineSet
EndChar

StartChar: greater
Encoding: 62 62 30
Width: 303
VWidth: 0
Flags: HMW
LayerCount: 2
Fore
SplineSet
280 139 m 0
 280 101 l 0
 25 -14 l 0
 25 24 l 0
 237 120 l 0
 25 214 l 0
 25 252 l 0
 280 139 l 0
EndSplineSet
EndChar

StartChar: question
Encoding: 63 63 31
Width: 222
VWidth: 0
Flags: HMW
LayerCount: 2
Fore
SplineSet
119 1 m 0
 107 -11 87 -11 75 1 c 0
 63 13 63 33 75 45 c 0
 87 57 107 57 119 45 c 0
 131 33 131 13 119 1 c 0
89 95 m 0
 86 154 103 182 120 200 c 0
 166 250 167 308 140 335 c 0
 120 355 78 355 58 335 c 0
 48 325 48 322 59 311 c 0
 77 293 77 276 65 264 c 0
 54 253 37 253 25 264 c 0
 8 282 8 314 32 338 c 0
 73 379 147 379 183 343 c 0
 215 311 215 253 177 215 c 0
 158 196 100 162 105 95 c 0
 89 95 l 0
EndSplineSet
EndChar

StartChar: at
Encoding: 64 64 32
Width: 368
VWidth: 0
Flags: HMW
LayerCount: 2
Fore
SplineSet
139 99 m 0
 151 87 168 87 182 101 c 0
 223 142 235 221 211 245 c 0
 200 256 190 256 178 244 c 0
 131 197 123 115 139 99 c 0
321 89 m 0
 352 89 l 0
 344 77 336 60 313 37 c 0
 252 -24 140 -24 74 42 c 0
 5 111 5 240 82 317 c 0
 150 385 247 385 309 323 c 0
 370 262 370 166 307 103 c 0
 271 67 237 70 222 85 c 0
 215 92 209 104 210 120 c 0
 173 61 135 68 110 93 c 0
 69 134 98 208 128 238 c 0
 164 274 214 283 233 229 c 0
 242 262 l 0
 285 262 l 0
 249 122 l 0
 239 85 263 82 286 105 c 0
 327 146 355 242 290 307 c 0
 236 361 159 361 99 301 c 0
 37 239 25 130 95 60 c 0
 152 3 243 3 298 58 c 0
 309 69 317 81 321 89 c 0
EndSplineSet
EndChar

StartChar: A
Encoding: 65 65 33
Width: 361
VWidth: 0
Flags: HMW
LayerCount: 2
Fore
SplineSet
262 53 m 0
 237 116 l 0
 96 116 l 0
 79 73 l 0
 67 42 70 18 128 18 c 0
 128 0 l 0
 -4 0 l 0
 -4 18 l 0
 28 19 39 32 50 60 c 0
 173 369 l 0
 189 369 l 0
 318 48 l 0
 326 29 331 16 366 18 c 0
 366 0 l 0
 216 0 l 0
 216 18 l 0
 273 15 270 34 262 53 c 0
228 139 m 0
 166 292 l 0
 105 139 l 0
 228 139 l 0
EndSplineSet
EndChar

StartChar: B
Encoding: 66 66 34
Width: 361
VWidth: 0
Flags: HMW
LayerCount: 2
Fore
SplineSet
125 195 m 0
 198 193 226 196 246 216 c 0
 270 240 270 298 242 326 c 0
 228 340 212 343 181 343 c 0
 130 343 126 337 125 309 c 0
 125 195 l 0
181 18 m 0
 226 18 241 23 257 39 c 0
 283 65 283 124 259 148 c 0
 238 169 208 177 125 175 c 0
 125 52 l 0
 126 24 130 18 181 18 c 0
227 186 m 0
 265 180 294 172 313 153 c 0
 343 123 343 66 310 33 c 0
 287 10 262 0 209 0 c 0
 15 0 l 0
 15 18 l 0
 66 18 70 24 71 52 c 0
 71 309 l 0
 70 337 66 343 15 343 c 0
 15 361 l 0
 209 361 l 0
 260 361 276 352 293 335 c 0
 327 301 326 246 295 215 c 0
 277 197 255 190 227 186 c 0
EndSplineSet
EndChar

StartChar: C
Encoding: 67 67 35
Width: 361
VWidth: 0
Flags: HMW
LayerCount: 2
Fore
SplineSet
306 220 m 0
 296 250 284 295 257 322 c 0
 220 359 163 359 128 324 c 0
 68 264 68 95 121 42 c 0
 160 3 233 3 272 42 c 0
 297 67 306 97 312 126 c 0
 333 122 l 0
 325 84 314 54 289 29 c 0
 238 -22 136 -22 75 39 c 0
 4 110 4 246 81 323 c 0
 140 382 228 382 280 335 c 0
 301 369 l 0
 319 369 l 0
 324 220 l 0
 306 220 l 0
EndSplineSet
EndChar

StartChar: D
Encoding: 68 68 36
Width: 389
VWidth: 0
Flags: HMW
LayerCount: 2
Fore
SplineSet
125 52 m 0
 125 21 138 18 181 18 c 0
 218 18 245 21 265 41 c 0
 318 94 318 264 270 312 c 0
 246 336 211 343 168 343 c 0
 132 343 125 334 125 309 c 0
 125 52 l 0
195 0 m 0
 15 0 l 0
 15 18 l 0
 66 18 70 24 71 52 c 0
 71 309 l 0
 70 337 66 343 15 343 c 0
 15 361 l 0
 197 361 l 0
 254 361 289 346 315 320 c 0
 384 251 384 111 313 40 c 0
 286 13 259 0 195 0 c 0
EndSplineSet
EndChar

StartChar: E
Encoding: 69 69 37
Width: 361
VWidth: 0
Flags: HMW
LayerCount: 2
Fore
SplineSet
213 101 m 0
 211 115 210 143 194 159 c 0
 177 176 161 175 125 175 c 0
 125 52 l 0
 126 24 130 18 181 18 c 0
 214 18 255 21 276 42 c 0
 305 71 307 104 314 131 c 0
 332 131 l 0
 323 0 l 0
 15 0 l 0
 15 18 l 0
 66 18 70 24 71 52 c 0
 71 309 l 0
 70 337 66 343 15 343 c 0
 15 361 l 0
 317 361 l 0
 322 232 l 0
 304 232 l 0
 299 252 293 297 275 315 c 0
 253 337 225 343 181 343 c 0
 130 343 126 337 125 309 c 0
 125 195 l 0
 171 195 181 199 194 212 c 0
 207 225 212 242 213 261 c 0
 231 261 l 0
 231 101 l 0
 213 101 l 0
EndSplineSet
EndChar

StartChar: F
Encoding: 70 70 38
Width: 333
VWidth: 0
Flags: HMW
LayerCount: 2
Fore
SplineSet
125 52 m 0
 126 24 130 18 188 18 c 0
 188 0 l 0
 15 0 l 0
 15 18 l 0
 66 18 70 24 71 52 c 0
 71 309 l 0
 70 337 66 343 15 343 c 0
 15 361 l 0
 314 361 l 0
 319 232 l 0
 301 232 l 0
 296 252 290 297 272 315 c 0
 250 337 222 343 178 343 c 0
 130 343 126 337 125 309 c 0
 125 195 l 0
 171 195 181 199 194 212 c 0
 207 225 212 242 213 261 c 0
 231 261 l 0
 231 101 l 0
 213 101 l 0
 211 115 210 143 194 159 c 0
 177 176 161 175 125 175 c 0
 125 52 l 0
EndSplineSet
EndChar

StartChar: G
Encoding: 71 71 39
Width: 389
VWidth: 0
Flags: HMW
LayerCount: 2
Fore
SplineSet
267 40 m 0
 277 50 285 73 285 108 c 0
 284 136 280 142 229 142 c 0
 229 160 l 0
 388 160 l 0
 388 142 l 0
 339 142 335 136 334 108 c 0
 334 -8 l 0
 315 -8 l 0
 294 38 l 0
 251 -23 135 -23 73 39 c 0
 5 107 4 243 83 322 c 0
 143 382 235 383 289 335 c 0
 310 369 l 0
 329 369 l 0
 334 224 l 0
 315 224 l 0
 303 260 289 298 264 323 c 0
 227 360 167 360 132 325 c 0
 68 260 68 93 122 39 c 0
 158 3 230 3 267 40 c 0
EndSplineSet
EndChar

StartChar: H
Encoding: 72 72 40
Width: 416
VWidth: 0
Flags: HMW
LayerCount: 2
Fore
SplineSet
236 343 m 0
 236 361 l 0
 402 361 l 0
 402 343 l 0
 351 343 347 337 346 309 c 0
 346 52 l 0
 347 24 351 18 402 18 c 0
 402 0 l 0
 236 0 l 0
 236 18 l 0
 287 18 291 24 292 52 c 0
 292 172 l 0
 125 172 l 0
 125 52 l 0
 126 24 130 18 181 18 c 0
 181 0 l 0
 15 0 l 0
 15 18 l 0
 66 18 70 24 71 52 c 0
 71 309 l 0
 70 337 66 343 15 343 c 0
 15 361 l 0
 181 361 l 0
 181 343 l 0
 130 343 126 337 125 309 c 0
 125 195 l 0
 292 195 l 0
 292 309 l 0
 291 337 287 343 236 343 c 0
EndSplineSet
EndChar

StartChar: I
Encoding: 73 73 41
Width: 203
VWidth: 0
Flags: HMW
LayerCount: 2
Fore
SplineSet
19 18 m 0
 70 18 74 24 75 52 c 0
 75 309 l 0
 74 337 70 343 19 343 c 0
 19 361 l 0
 185 361 l 0
 185 343 l 0
 134 343 130 337 129 309 c 0
 129 52 l 0
 130 24 134 18 185 18 c 0
 185 0 l 0
 19 0 l 0
 19 18 l 0
EndSplineSet
EndChar

StartChar: J
Encoding: 74 74 42
Width: 278
VWidth: 0
Flags: HMW
LayerCount: 2
Fore
SplineSet
159 111 m 0
 159 309 l 0
 158 337 154 343 103 343 c 0
 103 361 l 0
 269 361 l 0
 269 343 l 0
 218 343 214 337 213 309 c 0
 213 111 l 0
 213 69 207 43 184 20 c 0
 147 -17 60 -17 25 19 c 0
 -3 46 -3 99 19 121 c 0
 36 138 64 138 78 124 c 0
 89 113 89 87 77 75 c 0
 64 62 33 70 28 65 c 0
 24 61 33 38 42 29 c 0
 68 3 110 3 138 31 c 0
 154 47 159 85 159 111 c 0
EndSplineSet
EndChar

StartChar: K
Encoding: 75 75 43
Width: 389
VWidth: 0
Flags: HMW
LayerCount: 2
Fore
SplineSet
342 45 m 0
 359 21 376 19 402 18 c 0
 402 0 l 0
 233 0 l 0
 233 18 l 0
 298 16 286 33 274 51 c 0
 186 185 l 0
 125 124 l 0
 125 52 l 0
 126 24 130 18 181 18 c 0
 181 0 l 0
 15 0 l 0
 15 18 l 0
 66 18 70 24 71 52 c 0
 71 309 l 0
 70 337 66 343 15 343 c 0
 15 361 l 0
 181 361 l 0
 181 343 l 0
 130 343 126 337 125 309 c 0
 125 155 l 0
 260 296 l 0
 286 323 294 346 229 343 c 0
 229 361 l 0
 392 361 l 0
 392 343 l 0
 359 343 332 336 307 310 c 0
 218 219 l 0
 342 45 l 0
EndSplineSet
EndChar

StartChar: L
Encoding: 76 76 44
Width: 333
VWidth: 0
Flags: HMW
LayerCount: 2
Fore
SplineSet
306 131 m 0
 324 131 l 0
 315 0 l 0
 19 0 l 0
 19 18 l 0
 70 18 74 24 75 52 c 0
 75 309 l 0
 74 337 70 343 19 343 c 0
 19 361 l 0
 185 361 l 0
 185 343 l 0
 134 343 130 337 129 309 c 0
 129 52 l 0
 130 24 134 18 185 18 c 0
 220 18 252 26 268 42 c 0
 292 66 300 99 306 131 c 0
EndSplineSet
EndChar

StartChar: M
Encoding: 77 77 45
Width: 472
VWidth: 0
Flags: HMW
LayerCount: 2
Fore
SplineSet
144 18 m 0
 144 0 l 0
 11 0 l 0
 11 18 l 0
 38 19 67 22 67 74 c 0
 67 309 l 0
 66 337 62 343 11 343 c 0
 11 361 l 0
 135 361 l 0
 235 79 l 0
 332 361 l 0
 457 361 l 0
 457 343 l 0
 406 343 402 337 401 309 c 0
 401 52 l 0
 402 24 406 18 457 18 c 0
 457 0 l 0
 291 0 l 0
 291 18 l 0
 342 18 346 24 347 52 c 0
 347 343 l 0
 228 0 l 0
 214 0 l 0
 88 343 l 0
 88 74 l 0
 88 22 117 19 144 18 c 0
EndSplineSet
EndChar

StartChar: N
Encoding: 78 78 46
Width: 407
VWidth: 0
Flags: HMW
LayerCount: 2
Fore
SplineSet
10 343 m 0
 10 361 l 0
 117 361 l 0
 320 80 l 0
 320 287 l 0
 320 339 291 342 264 343 c 0
 264 361 l 0
 397 361 l 0
 397 343 l 0
 370 342 341 339 341 287 c 0
 341 -8 l 0
 323 -8 l 0
 94 306 l 0
 94 74 l 0
 94 22 123 19 150 18 c 0
 150 0 l 0
 10 0 l 0
 10 18 l 0
 44 19 73 22 73 74 c 0
 73 309 l 0
 73 341 59 345 10 343 c 0
EndSplineSet
EndChar

StartChar: O
Encoding: 79 79 47
Width: 389
VWidth: 0
Flags: HMW
LayerCount: 2
Fore
SplineSet
124 322 m 0
 71 269 71 93 124 40 c 0
 163 1 227 1 267 41 c 0
 319 93 319 269 267 321 c 0
 227 361 163 361 124 322 c 0
82 324 m 0
 142 384 248 384 308 324 c 0
 387 245 387 116 308 37 c 0
 248 -23 142 -23 82 37 c 0
 3 116 3 245 82 324 c 0
EndSplineSet
EndChar

StartChar: P
Encoding: 80 80 48
Width: 333
VWidth: 0
Flags: HMW
LayerCount: 2
Fore
SplineSet
125 180 m 0
 205 172 229 182 245 198 c 0
 274 227 274 295 248 321 c 0
 231 338 205 343 181 343 c 0
 130 343 126 337 125 309 c 0
 125 180 l 0
125 159 m 0
 125 52 l 0
 126 24 130 18 181 18 c 0
 181 0 l 0
 15 0 l 0
 15 18 l 0
 66 18 70 24 71 52 c 0
 71 309 l 0
 70 337 66 343 15 343 c 0
 15 361 l 0
 200 361 l 0
 250 361 277 354 298 333 c 0
 336 295 336 231 295 190 c 0
 262 157 190 157 125 159 c 0
EndSplineSet
EndChar

StartChar: Q
Encoding: 81 81 49
Width: 389
VWidth: 0
Flags: HMW
LayerCount: 2
Fore
SplineSet
267 321 m 0
 227 361 163 361 124 322 c 0
 71 269 71 93 122 42 c 0
 113 66 118 89 137 108 c 0
 164 135 216 135 247 105 c 0
 263 88 269 71 276 52 c 0
 316 106 319 269 267 321 c 0
82 324 m 0
 142 384 248 384 308 324 c 0
 387 245 391 100 288 20 c 0
 294 -6 306 -43 317 -54 c 0
 325 -62 334 -62 342 -53 c 0
 352 -44 352 -25 354 -14 c 0
 374 -14 l 0
 374 -38 372 -65 355 -82 c 0
 337 -100 289 -100 266 -77 c 0
 251 -62 246 -34 245 -2 c 0
 190 -14 130 -11 82 37 c 0
 3 116 3 245 82 324 c 0
244 24 m 0
 243 48 244 75 225 94 c 0
 207 112 169 112 152 95 c 0
 132 75 132 44 152 24 c 0
 169 7 213 6 244 24 c 0
EndSplineSet
EndChar

StartChar: R
Encoding: 82 82 50
Width: 361
VWidth: 0
Flags: HMW
LayerCount: 2
Fore
SplineSet
125 196 m 0
 159 192 219 186 247 214 c 0
 272 239 271 300 250 321 c 0
 234 337 210 343 183 343 c 0
 132 343 126 337 125 309 c 0
 125 196 l 0
157 175 m 0
 125 175 l 0
 125 52 l 0
 126 24 130 18 181 18 c 0
 181 0 l 0
 15 0 l 0
 15 18 l 0
 66 18 70 24 71 52 c 0
 71 309 l 0
 70 337 66 343 15 343 c 0
 15 361 l 0
 202 361 l 0
 254 361 279 354 302 331 c 0
 334 299 334 244 300 210 c 0
 280 190 248 185 209 181 c 0
 228 179 243 171 257 157 c 0
 294 120 288 53 308 33 c 0
 315 26 328 26 334 32 c 0
 342 40 343 58 344 77 c 0
 361 77 l 0
 361 49 358 24 341 7 c 0
 321 -13 281 -13 262 6 c 0
 230 38 246 125 215 156 c 0
 202 169 175 175 157 175 c 0
EndSplineSet
EndChar

StartChar: S
Encoding: 83 83 51
Width: 315
VWidth: 0
Flags: HMW
LayerCount: 2
Fore
SplineSet
67 27 m 0
 48 -4 l 0
 30 -4 l 0
 26 133 l 0
 44 133 l 0
 51 99 64 71 89 46 c 0
 134 1 206 1 241 36 c 0
 264 59 264 106 240 130 c 0
 215 155 99 159 64 194 c 0
 24 234 24 299 62 337 c 0
 107 382 192 379 237 333 c 0
 256 365 l 0
 274 365 l 0
 278 233 l 0
 260 233 l 0
 256 260 243 293 215 322 c 0
 176 360 118 360 86 328 c 0
 65 307 65 263 83 245 c 0
 123 205 227 214 268 173 c 0
 304 137 304 62 268 26 c 0
 222 -20 129 -20 67 27 c 0
EndSplineSet
EndChar

StartChar: T
Encoding: 84 84 52
Width: 333
VWidth: 0
Flags: HMW
LayerCount: 2
Fore
SplineSet
112 341 m 0
 103 341 81 337 65 321 c 0
 42 298 32 256 28 220 c 0
 10 220 l 0
 16 361 l 0
 318 361 l 0
 324 220 l 0
 306 220 l 0
 302 256 292 298 269 321 c 0
 253 337 231 341 222 341 c 0
 191 341 194 319 194 309 c 0
 194 52 l 0
 195 24 199 18 250 18 c 0
 250 0 l 0
 84 0 l 0
 84 18 l 0
 135 18 139 24 140 52 c 0
 140 309 l 0
 140 319 143 341 112 341 c 0
EndSplineSet
EndChar

StartChar: U
Encoding: 85 85 53
Width: 407
VWidth: 0
Flags: HMW
LayerCount: 2
Fore
SplineSet
312 30 m 0
 262 -20 139 -20 93 26 c 0
 66 53 65 100 65 122 c 0
 65 309 l 0
 64 337 60 343 9 343 c 0
 9 361 l 0
 175 361 l 0
 175 343 l 0
 124 343 120 337 119 309 c 0
 119 122 l 0
 119 99 120 61 140 41 c 0
 175 6 258 6 296 44 c 0
 312 60 323 96 323 122 c 0
 323 287 l 0
 323 339 294 342 267 343 c 0
 267 361 l 0
 400 361 l 0
 400 343 l 0
 373 342 344 339 344 287 c 0
 344 122 l 0
 344 91 333 51 312 30 c 0
EndSplineSet
EndChar

StartChar: V
Encoding: 86 86 54
Width: 361
VWidth: 0
Flags: HMW
LayerCount: 2
Fore
SplineSet
279 282 m 0
 296 329 284 342 235 343 c 0
 235 361 l 0
 366 361 l 0
 366 343 l 0
 341 343 326 337 314 305 c 0
 190 -8 l 0
 175 -8 l 0
 42 319 l 0
 33 342 24 343 -4 343 c 0
 -4 361 l 0
 152 361 l 0
 152 343 l 0
 90 345 97 326 104 307 c 0
 199 66 l 0
 279 282 l 0
EndSplineSet
EndChar

StartChar: W
Encoding: 87 87 55
Width: 490
VWidth: 0
Flags: HMW
LayerCount: 2
Fore
SplineSet
282 302 m 0
 354 77 l 0
 417 297 l 0
 426 328 427 344 371 343 c 0
 371 361 l 0
 488 361 l 0
 488 343 l 0
 467 344 454 336 446 310 c 0
 351 -8 l 0
 332 -8 l 0
 250 249 l 0
 173 -8 l 0
 154 -8 l 0
 46 310 l 0
 38 334 35 342 3 343 c 0
 3 361 l 0
 144 361 l 0
 144 343 l 0
 93 342 93 334 103 302 c 0
 175 77 l 0
 238 284 l 0
 230 310 l 0
 223 334 217 345 181 343 c 0
 181 361 l 0
 323 361 l 0
 323 343 l 0
 269 342 273 331 282 302 c 0
EndSplineSet
EndChar

StartChar: X
Encoding: 88 88 56
Width: 352
VWidth: 0
Flags: HMW
LayerCount: 2
Fore
SplineSet
68 63 m 0
 150 174 l 0
 49 319 l 0
 32 344 20 344 -3 343 c 0
 -3 361 l 0
 152 361 l 0
 152 343 l 0
 101 344 98 336 116 310 c 0
 181 217 l 0
 236 292 l 0
 254 317 253 344 204 343 c 0
 204 361 l 0
 342 361 l 0
 342 343 l 0
 311 341 297 338 276 310 c 0
 194 198 l 0
 300 44 l 0
 313 25 322 16 358 18 c 0
 358 0 l 0
 198 0 l 0
 198 18 l 0
 240 19 259 17 233 53 c 0
 163 155 l 0
 102 72 l 0
 85 49 82 16 138 18 c 0
 138 0 l 0
 -3 0 l 0
 -3 18 l 0
 38 21 46 33 68 63 c 0
EndSplineSet
EndChar

StartChar: Y
Encoding: 89 89 57
Width: 352
VWidth: 0
Flags: HMW
LayerCount: 2
Fore
SplineSet
-7 343 m 0
 -7 361 l 0
 154 361 l 0
 154 343 l 0
 89 344 96 332 111 308 c 0
 195 169 l 0
 265 295 l 0
 279 320 272 346 219 343 c 0
 219 361 l 0
 357 361 l 0
 357 343 l 0
 325 339 308 328 291 297 c 0
 208 149 l 0
 208 52 l 0
 209 24 213 18 264 18 c 0
 264 0 l 0
 98 0 l 0
 98 18 l 0
 149 18 153 24 154 52 c 0
 154 141 l 0
 44 318 l 0
 28 343 12 343 -7 343 c 0
EndSplineSet
EndChar

StartChar: Z
Encoding: 90 90 58
Width: 305
VWidth: 0
Flags: HMW
LayerCount: 2
Fore
SplineSet
164 343 m 0
 149 343 103 344 78 319 c 0
 56 297 49 258 43 230 c 0
 25 230 l 0
 34 361 l 0
 284 361 l 0
 284 343 l 0
 73 18 l 0
 149 18 l 0
 188 18 217 23 234 40 c 0
 256 62 264 103 270 131 c 0
 288 131 l 0
 279 0 l 0
 12 0 l 0
 12 18 l 0
 224 343 l 0
 164 343 l 0
EndSplineSet
EndChar

StartChar: bracketleft
Encoding: 91 91 59
Width: 166
VWidth: 0
Flags: HMW
LayerCount: 2
Fore
SplineSet
33 361 m 0
 149 361 l 0
 149 343 l 0
 70 343 l 0
 70 -37 l 0
 149 -37 l 0
 149 -55 l 0
 33 -55 l 0
 33 361 l 0
EndSplineSet
EndChar

StartChar: backslash
Encoding: 92 92 60
Width: 303
VWidth: 0
Flags: HMW
LayerCount: 2
Fore
SplineSet
37 369 m 0
 80 369 l 0
 266 0 l 0
 223 0 l 0
 37 369 l 0
EndSplineSet
EndChar

StartChar: bracketright
Encoding: 93 93 61
Width: 166
VWidth: 0
Flags: HMW
LayerCount: 2
Fore
SplineSet
133 361 m 0
 133 -55 l 0
 18 -55 l 0
 18 -37 l 0
 96 -37 l 0
 96 343 l 0
 18 343 l 0
 18 361 l 0
 133 361 l 0
EndSplineSet
EndChar

StartChar: asciicircum
Encoding: 94 94 62
Width: 166
VWidth: 0
Flags: HMW
LayerCount: 2
Fore
SplineSet
6 264 m 0
 68 350 l 0
 101 350 l 0
 163 264 l 0
 146 264 l 0
 84 316 l 0
 23 264 l 0
 6 264 l 0
EndSplineSet
EndChar

StartChar: underscore
Encoding: 95 95 63
Width: 250
VWidth: 0
Flags: HMW
LayerCount: 2
Fore
SplineSet
0 -37 m 0
 250 -37 l 0
 250 -67 l 0
 0 -67 l 0
 0 -37 l 0
EndSplineSet
EndChar

StartChar: grave
Encoding: 96 96 64
Width: 166
VWidth: 0
Flags: HMW
LayerCount: 2
Fore
SplineSet
48 339 m 0
 121 264 l 0
 101 264 l 0
 23 311 l 0
 -9 331 20 368 48 339 c 0
EndSplineSet
EndChar

StartChar: a
Encoding: 97 97 65
Width: 278
VWidth: 0
Flags: HMW
LayerCount: 2
Fore
SplineSet
181 124 m 0
 151 119 106 115 85 94 c 0
 67 76 68 44 81 31 c 0
 100 12 137 12 164 39 c 0
 180 55 182 71 181 124 c 0
226 48 m 0
 226 20 250 22 256 28 c 0
 267 39 281 26 264 9 c 0
 247 -8 212 -8 198 6 c 0
 186 18 186 28 184 37 c 0
 149 -23 64 -14 37 13 c 0
 16 34 16 70 42 96 c 0
 76 130 162 138 181 143 c 0
 181 179 l 0
 181 185 181 196 170 207 c 0
 151 226 99 226 82 209 c 0
 76 202 76 202 85 192 c 0
 92 186 92 166 84 158 c 0
 73 147 54 147 42 159 c 0
 33 168 33 195 51 213 c 0
 86 248 182 248 213 217 c 0
 227 203 226 184 226 175 c 0
 226 48 l 0
EndSplineSet
EndChar

StartChar: b
Encoding: 98 98 66
Width: 278
VWidth: 0
Flags: HMW
LayerCount: 2
Fore
SplineSet
75 34 m 0
 54 -8 l 0
 34 -8 l 0
 46 48 44 74 44 95 c 0
 44 309 l 0
 44 334 47 343 4 343 c 0
 4 361 l 0
 89 367 l 0
 89 198 l 0
 120 251 182 252 223 211 c 0
 273 161 273 72 221 20 c 0
 181 -20 119 -20 75 34 c 0
112 29 m 0
 135 6 164 6 182 24 c 0
 220 62 220 167 182 205 c 0
 166 221 133 221 111 199 c 0
 76 164 76 65 112 29 c 0
EndSplineSet
EndChar

StartChar: c
Encoding: 99 99 67
Width: 222
VWidth: 0
Flags: HMW
LayerCount: 2
Fore
SplineSet
160 211 m 0
 147 224 114 224 94 204 c 0
 58 168 58 71 92 37 c 0
 114 15 152 15 178 41 c 0
 187 50 192 61 197 71 c 0
 213 63 l 0
 207 48 201 31 185 15 c 0
 153 -17 88 -17 48 23 c 0
 6 65 6 159 53 206 c 0
 97 250 158 250 192 216 c 0
 213 195 214 173 199 158 c 0
 187 146 170 146 158 158 c 0
 134 182 174 197 160 211 c 0
EndSplineSet
EndChar

StartChar: d
Encoding: 100 100 68
Width: 287
VWidth: 0
Flags: HMW
LayerCount: 2
Fore
SplineSet
162 30 m 0
 199 67 198 168 167 199 c 0
 145 221 113 221 95 203 c 0
 58 166 58 63 95 26 c 0
 110 11 143 11 162 30 c 0
189 37 m 0
 162 -20 92 -20 56 16 c 0
 8 64 8 160 61 213 c 0
 100 252 157 251 189 198 c 0
 189 309 l 0
 189 345 184 343 142 343 c 0
 142 361 l 0
 234 367 l 0
 234 52 l 0
 234 21 234 18 277 18 c 0
 277 0 l 0
 189 -6 l 0
 189 37 l 0
EndSplineSet
EndChar

StartChar: e
Encoding: 101 101 69
Width: 250
VWidth: 0
Flags: HMW
LayerCount: 2
Fore
SplineSet
69 133 m 0
 146 133 l 0
 164 133 173 133 178 138 c 0
 189 149 180 192 164 208 c 0
 147 225 112 225 92 205 c 0
 76 189 69 156 69 133 c 0
218 71 m 0
 233 61 l 0
 227 50 223 38 208 23 c 0
 166 -19 94 -19 51 24 c 0
 5 70 5 160 56 211 c 0
 94 249 162 249 197 214 c 0
 220 191 235 156 233 114 c 0
 69 114 l 0
 69 90 73 58 91 40 c 0
 120 11 166 11 201 46 c 0
 211 56 215 68 218 71 c 0
EndSplineSet
EndChar

StartChar: f
Encoding: 102 102 70
Width: 166
VWidth: 0
Flags: HMW
LayerCount: 2
Fore
SplineSet
15 18 m 0
 50 18 57 14 57 44 c 0
 57 209 l 0
 10 209 l 0
 10 226 l 0
 57 226 l 0
 57 258 l 0
 57 283 64 322 86 344 c 0
 118 376 180 376 205 351 c 0
 220 336 220 310 210 301 c 0
 196 286 183 286 172 297 c 0
 149 320 176 338 168 346 c 0
 162 352 138 352 125 339 c 0
 104 318 102 291 102 268 c 0
 102 226 l 0
 155 226 l 0
 155 209 l 0
 102 209 l 0
 102 44 l 0
 102 14 109 18 144 18 c 0
 144 0 l 0
 15 0 l 0
 15 18 l 0
EndSplineSet
EndChar

StartChar: g
Encoding: 103 103 71
Width: 268
VWidth: 0
Flags: HMW
LayerCount: 2
Fore
SplineSet
90 112 m 0
 110 92 140 92 160 112 c 0
 181 133 181 187 162 206 c 0
 142 226 111 226 91 206 c 0
 68 183 68 134 90 112 c 0
56 0 m 0
 48 3 41 6 33 14 c 0
 20 27 20 60 36 76 c 0
 47 87 60 90 72 94 c 0
 65 98 57 102 49 110 c 0
 24 135 24 185 53 214 c 0
 87 248 151 248 190 222 c 0
 218 253 250 253 265 238 c 0
 273 230 273 212 265 204 c 0
 256 195 240 195 231 204 c 0
 225 210 225 221 226 223 c 0
 220 223 208 217 204 210 c 0
 227 182 227 133 197 103 c 0
 156 62 84 91 64 71 c 0
 56 63 56 53 63 46 c 0
 71 38 125 39 134 39 c 0
 185 39 206 39 225 20 c 0
 250 -5 250 -45 227 -68 c 0
 184 -111 60 -111 23 -74 c 0
 5 -56 6 -12 56 0 c 0
87 -4 m 0
 54 -13 47 -50 62 -65 c 0
 86 -89 166 -89 195 -60 c 0
 208 -47 208 -26 198 -16 c 0
 185 -3 172 -4 87 -4 c 0
EndSplineSet
EndChar

StartChar: h
Encoding: 104 104 72
Width: 305
VWidth: 0
Flags: HMW
LayerCount: 2
Fore
SplineSet
200 198 m 0
 180 218 153 218 126 191 c 0
 109 174 102 150 102 130 c 0
 102 44 l 0
 102 14 109 18 144 18 c 0
 144 0 l 0
 15 0 l 0
 15 18 l 0
 50 18 57 14 57 44 c 0
 57 318 l 0
 57 348 50 343 15 343 c 0
 15 361 l 0
 102 367 l 0
 102 187 l 0
 132 249 204 251 234 221 c 0
 253 202 257 180 257 154 c 0
 257 44 l 0
 257 14 264 18 299 18 c 0
 299 0 l 0
 170 0 l 0
 170 18 l 0
 205 18 212 14 212 44 c 0
 212 161 l 0
 212 170 209 190 200 198 c 0
EndSplineSet
EndChar

StartChar: i
Encoding: 105 105 73
Width: 157
VWidth: 0
Flags: HMW
LayerCount: 2
Fore
SplineSet
8 208 m 0
 8 226 l 0
 102 232 l 0
 102 44 l 0
 102 14 109 18 144 18 c 0
 144 0 l 0
 15 0 l 0
 15 18 l 0
 50 18 57 14 57 44 c 0
 57 174 l 0
 57 205 53 209 8 208 c 0
99 349 m 0
 111 337 111 317 99 305 c 0
 87 293 67 293 55 305 c 0
 43 317 43 337 55 349 c 0
 67 361 87 361 99 349 c 0
EndSplineSet
EndChar

StartChar: j
Encoding: 106 106 74
Width: 148
VWidth: 0
Flags: HMW
LayerCount: 2
Fore
SplineSet
99 305 m 0
 87 293 67 293 55 305 c 0
 43 317 43 337 55 349 c 0
 67 361 87 361 99 349 c 0
 111 337 111 317 99 305 c 0
57 174 m 0
 57 211 50 208 10 208 c 0
 10 226 l 0
 102 232 l 0
 102 22 l 0
 102 -18 96 -56 76 -76 c 0
 43 -109 -8 -109 -30 -87 c 0
 -44 -73 -44 -53 -32 -41 c 0
 -22 -31 -6 -31 3 -40 c 0
 23 -60 2 -76 6 -80 c 0
 12 -86 30 -86 42 -74 c 0
 55 -61 57 -29 57 22 c 0
 57 174 l 0
EndSplineSet
EndChar

StartChar: k
Encoding: 107 107 75
Width: 296
VWidth: 0
Flags: HMW
LayerCount: 2
Fore
SplineSet
162 172 m 0
 187 197 223 221 147 218 c 0
 147 234 l 0
 277 234 l 0
 277 218 l 0
 227 219 206 182 166 148 c 0
 226 69 l 0
 250 37 263 14 297 18 c 0
 297 0 l 0
 168 0 l 0
 168 18 l 0
 226 15 195 38 177 62 c 0
 135 118 l 0
 102 87 l 0
 102 44 l 0
 102 14 109 18 144 18 c 0
 144 0 l 0
 15 0 l 0
 15 18 l 0
 50 18 57 14 57 44 c 0
 57 309 l 0
 57 346 50 343 10 343 c 0
 10 361 l 0
 102 367 l 0
 102 114 l 0
 162 172 l 0
EndSplineSet
EndChar

StartChar: l
Encoding: 108 108 76
Width: 157
VWidth: 0
Flags: HMW
LayerCount: 2
Fore
SplineSet
57 44 m 0
 57 309 l 0
 57 346 52 343 10 343 c 0
 10 361 l 0
 102 367 l 0
 102 44 l 0
 102 14 109 18 144 18 c 0
 144 0 l 0
 15 0 l 0
 15 18 l 0
 50 18 57 14 57 44 c 0
EndSplineSet
EndChar

StartChar: m
Encoding: 109 109 77
Width: 444
VWidth: 0
Flags: HMW
LayerCount: 2
Fore
SplineSet
248 182 m 0
 276 250 347 250 374 223 c 0
 396 201 397 172 397 156 c 0
 397 44 l 0
 397 14 404 18 435 18 c 0
 435 0 l 0
 310 0 l 0
 310 18 l 0
 345 18 352 14 352 44 c 0
 352 163 l 0
 352 174 350 191 340 201 c 0
 322 219 298 219 278 199 c 0
 262 183 250 157 250 130 c 0
 250 44 l 0
 250 14 257 18 288 18 c 0
 288 0 l 0
 163 0 l 0
 163 18 l 0
 198 18 205 14 205 44 c 0
 205 163 l 0
 205 174 203 191 193 201 c 0
 175 219 150 219 130 199 c 0
 114 183 102 157 102 130 c 0
 102 44 l 0
 102 14 109 18 140 18 c 0
 140 0 l 0
 15 0 l 0
 15 18 l 0
 50 18 57 14 57 44 c 0
 57 174 l 0
 57 202 60 209 13 209 c 0
 13 226 l 0
 102 232 l 0
 102 187 l 0
 136 250 200 250 227 223 c 0
 240 210 246 197 248 182 c 0
EndSplineSet
EndChar

StartChar: n
Encoding: 110 110 78
Width: 305
VWidth: 0
Flags: HMW
LayerCount: 2
Fore
SplineSet
102 131 m 0
 102 44 l 0
 102 14 109 18 144 18 c 0
 144 0 l 0
 15 0 l 0
 15 18 l 0
 50 18 57 14 57 44 c 0
 57 183 l 0
 57 213 50 208 15 208 c 0
 15 226 l 0
 102 232 l 0
 102 188 l 0
 134 251 205 251 235 221 c 0
 256 200 257 171 257 155 c 0
 257 44 l 0
 257 14 264 18 299 18 c 0
 299 0 l 0
 170 0 l 0
 170 18 l 0
 205 18 212 14 212 44 c 0
 212 162 l 0
 212 171 210 189 199 200 c 0
 181 218 151 218 129 196 c 0
 109 176 102 150 102 131 c 0
EndSplineSet
EndChar

StartChar: o
Encoding: 111 111 79
Width: 250
VWidth: 0
Flags: HMW
LayerCount: 2
Fore
SplineSet
162 28 m 0
 196 62 196 170 162 204 c 0
 135 231 115 231 88 204 c 0
 54 170 54 62 88 28 c 0
 115 1 135 1 162 28 c 0
51 210 m 0
 91 250 159 250 199 210 c 0
 244 165 244 67 199 22 c 0
 159 -18 91 -18 52 21 c 0
 6 67 6 165 51 210 c 0
EndSplineSet
EndChar

StartChar: p
Encoding: 112 112 80
Width: 287
VWidth: 0
Flags: HMW
LayerCount: 2
Fore
SplineSet
195 29 m 0
 231 65 231 168 196 203 c 0
 178 221 148 221 129 202 c 0
 92 165 92 65 124 33 c 0
 146 11 177 11 195 29 c 0
229 20 m 0
 189 -20 137 -20 102 34 c 0
 102 -59 l 0
 102 -89 109 -85 144 -85 c 0
 144 -103 l 0
 15 -103 l 0
 15 -85 l 0
 50 -85 57 -89 57 -59 c 0
 57 183 l 0
 57 213 50 208 15 208 c 0
 15 226 l 0
 102 232 l 0
 102 194 l 0
 130 252 196 252 234 214 c 0
 280 168 280 71 229 20 c 0
EndSplineSet
EndChar

StartChar: q
Encoding: 113 113 81
Width: 278
VWidth: 0
Flags: HMW
LayerCount: 2
Fore
SplineSet
162 203 m 0
 139 226 114 226 96 208 c 0
 58 170 58 65 96 27 c 0
 112 11 141 11 163 33 c 0
 198 68 198 167 162 203 c 0
145 -85 m 0
 180 -85 187 -89 187 -59 c 0
 187 34 l 0
 158 -19 96 -20 55 21 c 0
 5 71 5 160 57 212 c 0
 97 252 159 252 201 198 c 0
 222 232 l 0
 242 232 l 0
 234 210 232 179 232 137 c 0
 232 -59 l 0
 232 -89 239 -85 274 -85 c 0
 274 -103 l 0
 145 -103 l 0
 145 -85 l 0
EndSplineSet
EndChar

StartChar: r
Encoding: 114 114 82
Width: 222
VWidth: 0
Flags: HMW
LayerCount: 2
Fore
SplineSet
102 90 m 0
 102 44 l 0
 102 14 109 18 144 18 c 0
 144 0 l 0
 15 0 l 0
 15 18 l 0
 50 18 57 14 57 44 c 0
 57 183 l 0
 57 213 50 208 15 208 c 0
 15 226 l 0
 102 232 l 0
 102 163 l 0
 107 183 114 201 132 219 c 0
 159 246 192 246 211 227 c 0
 223 215 223 191 210 178 c 0
 202 170 181 170 173 178 c 0
 162 189 164 209 180 222 c 0
 169 223 154 219 141 206 c 0
 120 185 102 141 102 90 c 0
EndSplineSet
EndChar

StartChar: s
Encoding: 115 115 83
Width: 231
VWidth: 0
Flags: HMW
LayerCount: 2
Fore
SplineSet
194 111 m 0
 217 88 217 40 191 14 c 0
 161 -16 90 -16 58 18 c 0
 42 -4 l 0
 26 -4 l 0
 26 86 l 0
 42 86 l 0
 45 70 51 50 67 34 c 0
 97 4 150 4 171 25 c 0
 186 40 186 63 175 74 c 0
 148 101 77 93 46 124 c 0
 23 147 23 191 50 218 c 0
 79 247 135 247 168 220 c 0
 179 240 l 0
 194 240 l 0
 194 161 l 0
 178 161 l 0
 174 175 169 190 157 202 c 0
 131 228 88 228 67 207 c 0
 52 192 52 171 63 160 c 0
 88 135 161 144 194 111 c 0
EndSplineSet
EndChar

StartChar: t
Encoding: 116 116 84
Width: 194
VWidth: 0
Flags: HMW
LayerCount: 2
Fore
SplineSet
187 88 m 0
 188 57 181 30 163 12 c 0
 136 -15 91 -15 65 11 c 0
 52 24 51 46 51 62 c 0
 51 208 l 0
 9 208 l 0
 9 226 l 0
 61 227 73 279 79 325 c 0
 96 325 l 0
 96 226 l 0
 171 226 l 0
 171 208 l 0
 96 208 l 0
 96 62 l 0
 96 55 94 41 105 30 c 0
 115 20 140 20 153 33 c 0
 165 45 171 68 170 88 c 0
 187 88 l 0
EndSplineSet
EndChar

StartChar: u
Encoding: 117 117 85
Width: 305
VWidth: 0
Flags: HMW
LayerCount: 2
Fore
SplineSet
252 49 m 0
 252 19 259 23 294 23 c 0
 294 6 l 0
 207 0 l 0
 207 44 l 0
 174 -19 106 -19 76 11 c 0
 55 32 54 61 54 77 c 0
 54 183 l 0
 54 213 47 208 12 208 c 0
 12 226 l 0
 99 232 l 0
 99 70 l 0
 99 61 101 43 112 32 c 0
 130 14 157 14 179 36 c 0
 199 56 207 82 207 101 c 0
 207 183 l 0
 207 213 200 208 165 208 c 0
 165 226 l 0
 252 232 l 0
 252 49 l 0
EndSplineSet
EndChar

StartChar: v
Encoding: 118 118 86
Width: 268
VWidth: 0
Flags: HMW
LayerCount: 2
Fore
SplineSet
4 216 m 0
 4 232 l 0
 122 232 l 0
 122 216 l 0
 83 216 81 214 89 194 c 0
 149 49 l 0
 202 182 l 0
 211 204 210 218 168 216 c 0
 168 232 l 0
 264 232 l 0
 264 216 l 0
 243 219 231 201 222 179 c 0
 147 -8 l 0
 129 -8 l 0
 40 200 l 0
 32 217 23 217 4 216 c 0
EndSplineSet
EndChar

StartChar: w
Encoding: 119 119 87
Width: 389
VWidth: 0
Flags: HMW
LayerCount: 2
Fore
SplineSet
41 200 m 0
 36 215 27 215 8 216 c 0
 8 232 l 0
 117 232 l 0
 117 216 l 0
 86 217 84 211 90 194 c 0
 139 55 l 0
 186 179 l 0
 178 200 l 0
 174 213 163 216 148 216 c 0
 148 232 l 0
 260 232 l 0
 260 216 l 0
 222 218 220 213 227 194 c 0
 276 55 l 0
 323 182 l 0
 331 203 333 218 289 216 c 0
 289 232 l 0
 382 232 l 0
 382 216 l 0
 358 216 350 199 342 178 c 0
 273 -8 l 0
 255 -8 l 0
 196 151 l 0
 135 -8 l 0
 118 -8 l 0
 41 200 l 0
EndSplineSet
EndChar

StartChar: x
Encoding: 120 120 88
Width: 268
VWidth: 0
Flags: HMW
LayerCount: 2
Fore
SplineSet
225 37 m 0
 237 21 242 17 265 18 c 0
 265 0 l 0
 140 0 l 0
 140 18 l 0
 194 16 177 30 165 45 c 0
 126 96 l 0
 88 52 l 0
 72 33 65 14 112 18 c 0
 112 0 l 0
 5 0 l 0
 5 18 l 0
 27 17 37 24 48 37 c 0
 114 113 l 0
 51 196 l 0
 42 209 28 215 11 217 c 0
 11 232 l 0
 129 232 l 0
 129 216 l 0
 90 217 92 212 106 194 c 0
 143 145 l 0
 179 187 l 0
 193 204 194 217 157 216 c 0
 157 232 l 0
 258 232 l 0
 258 216 l 0
 230 216 226 209 217 199 c 0
 155 129 l 0
 225 37 l 0
EndSplineSet
EndChar

StartChar: y
Encoding: 121 121 89
Width: 268
VWidth: 0
Flags: HMW
LayerCount: 2
Fore
SplineSet
128 2 m 0
 40 200 l 0
 33 217 21 217 4 216 c 0
 4 232 l 0
 122 232 l 0
 122 216 l 0
 84 218 82 211 89 194 c 0
 150 54 l 0
 202 182 l 0
 211 204 209 219 168 216 c 0
 168 232 l 0
 264 232 l 0
 264 216 l 0
 243 220 229 197 222 179 c 0
 160 30 l 0
 136 -27 119 -60 101 -78 c 0
 70 -109 31 -109 13 -91 c 0
 -3 -75 -3 -55 7 -45 c 0
 19 -33 36 -33 46 -43 c 0
 67 -64 44 -74 49 -79 c 0
 56 -86 67 -86 88 -65 c 0
 103 -50 117 -23 128 2 c 0
EndSplineSet
EndChar

StartChar: z
Encoding: 122 122 90
Width: 240
VWidth: 0
Flags: HMW
LayerCount: 2
Fore
SplineSet
202 86 m 0
 218 86 l 0
 214 0 l 0
 20 0 l 0
 20 15 l 0
 160 214 l 0
 114 214 l 0
 83 214 47 203 44 146 c 0
 28 146 l 0
 32 232 l 0
 215 232 l 0
 215 217 l 0
 76 18 l 0
 134 18 l 0
 183 18 193 42 202 86 c 0
EndSplineSet
EndChar

StartChar: braceleft
Encoding: 123 123 91
Width: 166
VWidth: 0
Flags: HMW
LayerCount: 2
Fore
SplineSet
149 361 m 0
 109 360 107 330 107 297 c 0
 107 218 l 0
 107 177 90 159 60 153 c 0
 90 147 107 129 107 88 c 0
 107 9 l 0
 107 -24 109 -54 149 -55 c 0
 91 -55 73 -36 73 10 c 0
 73 89 l 0
 73 107 75 152 33 153 c 0
 75 154 73 199 73 217 c 0
 73 296 l 0
 73 342 91 361 149 361 c 0
EndSplineSet
EndChar

StartChar: bar
Encoding: 124 124 92
Width: 303
VWidth: 0
Flags: HMW
LayerCount: 2
Fore
SplineSet
132 369 m 0
 171 369 l 0
 171 0 l 0
 132 0 l 0
 132 369 l 0
EndSplineSet
EndChar

StartChar: braceright
Encoding: 125 125 93
Width: 166
VWidth: 0
Flags: HMW
LayerCount: 2
Fore
SplineSet
60 297 m 0
 60 330 58 360 18 361 c 0
 76 361 94 342 94 296 c 0
 94 217 l 0
 94 199 92 154 134 153 c 0
 92 152 94 107 94 89 c 0
 94 10 l 0
 94 -36 76 -55 18 -55 c 0
 58 -54 60 -24 60 9 c 0
 60 88 l 0
 60 129 77 147 107 153 c 0
 77 159 60 177 60 218 c 0
 60 297 l 0
EndSplineSet
EndChar

StartChar: asciitilde
Encoding: 126 126 94
Width: 166
VWidth: 0
Flags: HMW
LayerCount: 2
Fore
SplineSet
1 279 m 0
 14 332 49 339 77 326 c 0
 107 312 l 0
 129 302 150 317 151 332 c 0
 165 332 l 0
 152 279 117 272 89 285 c 0
 59 299 l 0
 37 309 16 294 15 279 c 0
 1 279 l 0
EndSplineSet
EndChar

StartChar: uni0081
Encoding: 129 129 95
Width: 0
VWidth: 0
Flags: HMW
LayerCount: 2
Fore
SplineSet
75 424 m 0
 46 453 46 500 75 529 c 0
 105 559 151 559 182 529 c 0
 211 500 211 453 182 424 c 0
 151 394 105 394 75 424 c 0
93 440 m 0
 111 421 145 421 164 440 c 0
 185 461 185 492 164 513 c 0
 145 532 111 532 93 513 c 0
 72 492 72 461 93 440 c 0
EndSplineSet
EndChar

StartChar: uni008F
Encoding: 143 143 96
Width: 303
VWidth: 0
Flags: HMW
LayerCount: 2
Fore
SplineSet
92 133 m 0
 59 166 58 219 92 253 c 0
 124 285 178 285 210 253 c 0
 244 219 243 166 210 133 c 0
 178 101 124 101 92 133 c 0
EndSplineSet
EndChar

StartChar: uni0090
Encoding: 144 144 97
Width: 102
VWidth: 0
Flags: HMW
LayerCount: 2
Fore
SplineSet
25 235 m 0
 6 254 7 304 46 343 c 0
 55 352 69 363 78 369 c 0
 90 353 l 0
 63 333 40 312 40 282 c 0
 53 287 65 286 74 277 c 0
 87 264 87 245 72 230 c 0
 60 218 42 218 25 235 c 0
EndSplineSet
EndChar

StartChar: uni0091
Encoding: 145 145 98
Width: 102
VWidth: 0
Flags: HMW
LayerCount: 2
Fore
SplineSet
77 356 m 0
 96 337 95 287 56 248 c 0
 47 239 33 228 24 222 c 0
 12 238 l 0
 39 258 62 279 62 309 c 0
 49 304 37 305 28 314 c 0
 15 327 15 346 30 361 c 0
 42 373 60 373 77 356 c 0
EndSplineSet
EndChar

StartChar: uni0092
Encoding: 146 146 99
Width: 129
VWidth: 0
Flags: HMW
LayerCount: 2
Fore
SplineSet
48 146 m 0
 101 197 l 0
 107 203 119 203 104 181 c 0
 64 120 l 0
 104 59 l 0
 119 37 107 37 101 43 c 0
 48 94 l 0
 38 104 19 116 19 120 c 0
 19 124 38 136 48 146 c 0
EndSplineSet
EndChar

StartChar: uni0093
Encoding: 147 147 100
Width: 129
VWidth: 0
Flags: HMW
LayerCount: 2
Fore
SplineSet
29 43 m 0
 23 37 11 37 26 59 c 0
 66 120 l 0
 26 181 l 0
 11 203 23 203 29 197 c 0
 82 146 l 0
 92 136 111 124 111 120 c 0
 111 116 92 104 82 94 c 0
 29 43 l 0
EndSplineSet
EndChar

StartChar: uni0094
Encoding: 148 148 101
Width: 194
VWidth: 0
Flags: HMW
LayerCount: 2
Fore
SplineSet
117 235 m 0
 98 254 99 304 138 343 c 0
 147 352 161 363 170 369 c 0
 182 353 l 0
 155 333 132 312 132 282 c 0
 145 287 157 286 166 277 c 0
 179 264 179 245 164 230 c 0
 152 218 134 218 117 235 c 0
72 230 m 0
 60 218 42 218 25 235 c 0
 6 254 7 304 46 343 c 0
 55 352 69 363 78 369 c 0
 90 353 l 0
 63 333 40 312 40 282 c 0
 53 287 65 286 74 277 c 0
 87 264 87 245 72 230 c 0
EndSplineSet
EndChar

StartChar: uni0095
Encoding: 149 149 102
Width: 194
VWidth: 0
Flags: HMW
LayerCount: 2
Fore
SplineSet
170 356 m 0
 189 337 188 287 149 248 c 0
 140 239 126 228 117 222 c 0
 105 238 l 0
 132 258 155 279 155 309 c 0
 142 304 130 305 121 314 c 0
 108 327 108 346 123 361 c 0
 135 373 153 373 170 356 c 0
31 361 m 0
 43 373 61 373 78 356 c 0
 97 337 96 287 57 248 c 0
 48 239 34 228 25 222 c 0
 13 238 l 0
 40 258 63 279 63 309 c 0
 50 304 38 305 29 314 c 0
 16 327 16 346 31 361 c 0
EndSplineSet
EndChar

StartChar: uni0096
Encoding: 150 150 103
Width: 194
VWidth: 0
Flags: HMW
LayerCount: 2
Fore
SplineSet
149 -69 m 0
 140 -78 126 -89 117 -95 c 0
 105 -79 l 0
 132 -59 155 -38 155 -8 c 0
 142 -13 130 -12 121 -3 c 0
 108 10 108 29 123 44 c 0
 135 56 153 56 170 39 c 0
 189 20 188 -30 149 -69 c 0
78 39 m 0
 97 20 96 -30 57 -69 c 0
 48 -78 34 -89 25 -95 c 0
 13 -79 l 0
 40 -59 63 -38 63 -8 c 0
 50 -13 38 -12 29 -3 c 0
 16 10 16 29 31 44 c 0
 43 56 61 56 78 39 c 0
EndSplineSet
EndChar

StartChar: uni0097
Encoding: 151 151 104
Width: 278
VWidth: 0
Flags: HMW
LayerCount: 2
Fore
SplineSet
268 104 m 0
 0 104 l 0
 0 135 l 0
 268 135 l 0
 268 104 l 0
EndSplineSet
EndChar

StartChar: uni0098
Encoding: 152 152 105
Width: 500
VWidth: 0
Flags: HMW
LayerCount: 2
Fore
SplineSet
-4 104 m 0
 -4 135 l 0
 504 135 l 0
 504 104 l 0
 -4 104 l 0
EndSplineSet
EndChar

StartChar: uni0099
Encoding: 153 153 106
Width: 303
VWidth: 0
Flags: HMW
LayerCount: 2
Fore
SplineSet
26 101 m 0
 26 139 l 0
 278 139 l 0
 278 101 l 0
 26 101 l 0
EndSplineSet
EndChar

StartChar: uni009A
Encoding: 154 154 107
Width: 500
VWidth: 0
Flags: HMW
LayerCount: 2
Fore
SplineSet
61 50 m 0
 -7 118 -7 243 61 311 c 0
 95 345 132 361 183 361 c 0
 476 361 l 0
 481 232 l 0
 463 232 l 0
 458 252 452 297 434 315 c 0
 412 337 384 343 355 343 c 0
 304 343 300 337 299 309 c 0
 299 195 l 0
 334 195 344 199 357 212 c 0
 370 225 375 242 376 261 c 0
 394 261 l 0
 394 101 l 0
 376 101 l 0
 374 115 373 143 357 159 c 0
 340 176 324 175 299 175 c 0
 299 52 l 0
 300 24 304 18 355 18 c 0
 373 18 414 21 435 42 c 0
 464 71 466 104 473 131 c 0
 491 131 l 0
 482 0 l 0
 183 0 l 0
 132 0 95 16 61 50 c 0
245 89 m 0
 245 279 l 0
 245 288 245 310 229 326 c 0
 203 352 143 352 111 320 c 0
 58 267 58 97 107 48 c 0
 141 14 201 14 229 42 c 0
 245 58 245 80 245 89 c 0
EndSplineSet
EndChar

StartChar: uni009B
Encoding: 155 155 108
Width: 416
VWidth: 0
Flags: HMW
LayerCount: 2
Fore
SplineSet
313 133 m 0
 331 133 340 133 345 138 c 0
 356 149 347 192 331 208 c 0
 314 225 277 225 257 205 c 0
 241 189 234 156 234 133 c 0
 313 133 l 0
400 114 m 0
 234 114 l 0
 234 90 238 58 256 40 c 0
 285 11 333 11 368 46 c 0
 378 56 382 68 385 71 c 0
 400 61 l 0
 394 50 390 38 375 23 c 0
 332 -20 247 -20 209 33 c 0
 171 -20 93 -20 51 22 c 0
 6 67 6 165 51 210 c 0
 93 252 171 252 210 198 c 0
 249 251 327 251 364 214 c 0
 387 191 402 156 400 114 c 0
90 206 m 0
 54 170 54 62 90 26 c 0
 114 2 136 2 160 26 c 0
 196 62 196 170 160 206 c 0
 136 230 114 230 90 206 c 0
EndSplineSet
EndChar

StartChar: uni009C
Encoding: 156 156 109
Width: 250
VWidth: 0
Flags: HMW
LayerCount: 2
Fore
SplineSet
122 -74 m 0
 122 101 110 109 99 140 c 0
 117 163 122 165 122 236 c 0
 86 241 50 206 32 224 c 0
 20 236 20 247 32 259 c 0
 50 277 86 242 122 247 c 0
 125 297 89 341 109 361 c 0
 120 372 134 372 145 361 c 0
 165 341 129 297 132 247 c 0
 168 242 204 277 222 259 c 0
 234 247 234 236 222 224 c 0
 204 206 168 241 132 236 c 0
 132 165 137 163 155 140 c 0
 144 109 132 101 132 -74 c 0
 122 -74 l 0
EndSplineSet
EndChar

StartChar: uni009D
Encoding: 157 157 110
Width: 250
VWidth: 0
Flags: HMW
LayerCount: 2
Fore
SplineSet
155 143 m 0
 137 120 132 122 132 53 c 0
 168 48 204 83 222 65 c 0
 234 53 234 42 222 30 c 0
 204 12 168 47 132 42 c 0
 129 -8 165 -52 145 -72 c 0
 134 -83 120 -83 109 -72 c 0
 89 -52 125 -8 122 42 c 0
 86 47 50 12 32 30 c 0
 20 42 20 53 32 65 c 0
 50 83 86 48 122 53 c 0
 122 122 117 120 99 143 c 0
 117 166 122 167 122 236 c 0
 86 241 50 206 32 224 c 0
 20 236 20 247 32 259 c 0
 50 277 86 242 122 247 c 0
 125 297 89 341 109 361 c 0
 120 372 134 372 145 361 c 0
 165 341 129 297 132 247 c 0
 168 242 204 277 222 259 c 0
 234 247 234 236 222 224 c 0
 204 206 168 241 132 236 c 0
 132 167 137 166 155 143 c 0
EndSplineSet
EndChar

StartChar: uni009E
Encoding: 158 158 111
Width: 305
VWidth: 0
Flags: HMW
LayerCount: 2
Fore
SplineSet
236 350 m 0
 255 331 255 307 242 294 c 0
 230 282 215 282 204 293 c 0
 182 315 216 331 202 345 c 0
 192 355 158 355 136 333 c 0
 110 307 101 267 102 226 c 0
 163 226 l 0
 180 226 228 228 255 232 c 0
 255 44 l 0
 255 14 262 18 296 18 c 0
 296 0 l 0
 168 0 l 0
 168 18 l 0
 203 18 210 14 210 44 c 0
 210 174 l 0
 210 205 208 211 161 209 c 0
 102 209 l 0
 102 44 l 0
 102 14 109 18 144 18 c 0
 144 0 l 0
 15 0 l 0
 15 18 l 0
 50 18 57 14 57 44 c 0
 57 209 l 0
 10 209 l 0
 10 226 l 0
 57 226 l 0
 57 264 67 307 95 335 c 0
 138 378 208 378 236 350 c 0
EndSplineSet
EndChar

StartChar: uni009F
Encoding: 159 159 112
Width: 305
VWidth: 0
Flags: HMW
LayerCount: 2
Fore
SplineSet
102 226 m 0
 210 226 l 0
 210 287 l 0
 177 320 218 330 202 346 c 0
 192 356 158 356 136 334 c 0
 110 308 101 267 102 226 c 0
255 44 m 0
 255 14 262 18 296 18 c 0
 296 0 l 0
 168 0 l 0
 168 18 l 0
 203 18 210 14 210 44 c 0
 210 209 l 0
 102 209 l 0
 102 44 l 0
 102 14 109 18 144 18 c 0
 144 0 l 0
 15 0 l 0
 15 18 l 0
 50 18 57 14 57 44 c 0
 57 209 l 0
 10 209 l 0
 10 226 l 0
 57 226 l 0
 57 264 67 308 95 336 c 0
 133 374 191 374 220 362 c 0
 255 369 l 0
 255 44 l 0
EndSplineSet
EndChar

StartChar: exclamdown
Encoding: 161 161 114
Width: 148
VWidth: 0
Flags: HMW
LayerCount: 2
Fore
SplineSet
53 265 m 0
 65 277 85 277 97 265 c 0
 109 253 109 233 97 221 c 0
 85 209 65 209 53 221 c 0
 41 233 41 253 53 265 c 0
67 171 m 0
 83 171 l 0
 90 -48 126 -63 92 -97 c 0
 84 -105 66 -105 58 -97 c 0
 24 -63 60 -48 67 171 c 0
EndSplineSet
EndChar

StartChar: cent
Encoding: 162 162 115
Width: 278
VWidth: 0
Flags: HMW
LayerCount: 2
Fore
SplineSet
195 228 m 0
 222 293 l 0
 240 293 l 0
 209 218 l 0
 232 198 237 172 224 159 c 0
 211 146 194 146 183 157 c 0
 127 26 l 0
 143 19 179 20 201 42 c 0
 211 52 216 64 220 72 c 0
 236 64 l 0
 230 49 223 31 208 16 c 0
 181 -11 141 -11 115 -4 c 0
 87 -71 l 0
 69 -71 l 0
 99 1 l 0
 85 7 75 16 68 23 c 0
 25 65 25 161 70 206 c 0
 111 247 168 247 195 228 c 0
114 36 m 0
 176 184 l 0
 182 198 190 200 182 208 c 0
 166 224 132 224 115 207 c 0
 72 164 72 60 114 36 c 0
EndSplineSet
EndChar

StartChar: sterling
Encoding: 163 163 116
Width: 278
VWidth: 0
Flags: HMW
LayerCount: 2
Fore
SplineSet
92 35 m 0
 70 50 51 63 35 48 c 0
 26 38 26 24 34 16 c 0
 45 5 77 4 92 35 c 0
109 21 m 0
 81 -15 39 -15 20 4 c 0
 5 19 5 43 20 58 c 0
 39 77 68 77 101 57 c 0
 114 91 100 134 87 164 c 0
 19 164 l 0
 19 181 l 0
 81 181 l 0
 60 243 63 292 87 316 c 0
 133 362 202 362 230 334 c 0
 261 303 261 268 243 250 c 0
 231 238 210 238 200 248 c 0
 190 258 190 276 198 284 c 0
 203 289 238 299 216 321 c 0
 194 343 155 343 131 319 c 0
 104 292 112 253 133 181 c 0
 215 181 l 0
 215 164 l 0
 136 164 l 0
 140 133 147 88 124 48 c 0
 178 23 214 23 237 46 c 0
 247 56 251 69 253 76 c 0
 269 69 l 0
 266 49 257 31 241 15 c 0
 209 -17 176 -18 109 21 c 0
EndSplineSet
EndChar

StartChar: currency
Encoding: 164 164 117
Width: 278
VWidth: 0
Flags: HMW
LayerCount: 2
Fore
SplineSet
76 113 m 0
 111 78 167 78 202 113 c 0
 238 149 238 205 202 241 c 0
 167 276 111 276 76 241 c 0
 40 205 40 149 76 113 c 0
39 100 m 0
 4 136 4 218 39 253 c 0
 13 279 l 0
 36 302 l 0
 62 276 l 0
 98 312 180 312 216 276 c 0
 242 302 l 0
 265 279 l 0
 239 253 l 0
 274 218 274 136 239 100 c 0
 265 74 l 0
 242 51 l 0
 216 77 l 0
 180 41 98 41 62 77 c 0
 36 51 l 0
 13 74 l 0
 39 100 l 0
EndSplineSet
EndChar

StartChar: yen
Encoding: 165 165 118
Width: 278
VWidth: 0
Flags: HMW
LayerCount: 2
Fore
SplineSet
94 300 m 0
 153 160 l 0
 199 287 l 0
 208 314 212 337 165 336 c 0
 165 353 l 0
 278 353 l 0
 278 336 l 0
 247 336 236 320 225 289 c 0
 179 160 l 0
 222 160 l 0
 222 142 l 0
 166 142 l 0
 166 95 l 0
 222 95 l 0
 222 77 l 0
 166 77 l 0
 166 52 l 0
 167 24 171 18 222 18 c 0
 222 0 l 0
 56 0 l 0
 56 18 l 0
 107 18 111 24 112 52 c 0
 112 77 l 0
 56 77 l 0
 56 95 l 0
 112 95 l 0
 112 142 l 0
 56 142 l 0
 56 160 l 0
 101 160 l 0
 30 310 l 0
 23 327 18 336 0 336 c 0
 0 353 l 0
 112 353 l 0
 112 336 l 0
 80 337 84 324 94 300 c 0
EndSplineSet
EndChar

StartChar: brokenbar
Encoding: 166 166 119
Width: 303
VWidth: 0
Flags: HMW
LayerCount: 2
Fore
SplineSet
132 0 m 0
 132 145 l 0
 171 145 l 0
 171 0 l 0
 132 0 l 0
132 369 m 0
 171 369 l 0
 171 224 l 0
 132 224 l 0
 132 369 l 0
EndSplineSet
EndChar

StartChar: section
Encoding: 167 167 120
Width: 250
VWidth: 0
Flags: HMW
LayerCount: 2
Fore
SplineSet
151 79 m 0
 215 33 213 -22 183 -52 c 0
 154 -81 96 -81 70 -55 c 0
 48 -33 48 -9 59 2 c 0
 72 15 87 15 96 6 c 0
 122 -20 76 -38 90 -52 c 0
 104 -66 144 -66 163 -47 c 0
 179 -31 179 -6 157 16 c 0
 125 48 73 82 54 101 c 0
 22 133 22 174 46 198 c 0
 59 211 80 217 103 216 c 0
 39 262 43 317 73 347 c 0
 102 376 159 376 185 350 c 0
 207 328 207 304 196 293 c 0
 183 280 168 280 159 289 c 0
 133 315 179 333 165 347 c 0
 151 361 112 361 93 342 c 0
 77 326 77 301 99 279 c 0
 131 247 180 213 199 194 c 0
 231 162 231 121 207 97 c 0
 194 84 174 78 151 79 c 0
80 131 m 0
 129 82 173 82 192 101 c 0
 205 114 205 130 172 163 c 0
 119 216 86 216 65 195 c 0
 50 180 50 161 80 131 c 0
EndSplineSet
EndChar

StartChar: dieresis
Encoding: 168 168 121
Width: 166
VWidth: 0
Flags: HMW
LayerCount: 2
Fore
SplineSet
17 279 m 0
 6 290 6 304 17 315 c 0
 27 325 41 325 51 315 c 0
 62 304 62 290 51 279 c 0
 41 269 27 269 17 279 c 0
150 315 m 0
 161 304 161 290 150 279 c 0
 140 269 126 269 116 279 c 0
 105 290 105 304 116 315 c 0
 126 325 140 325 150 315 c 0
EndSplineSet
EndChar

StartChar: copyright
Encoding: 169 169 122
Width: 368
VWidth: 0
Flags: HMW
LayerCount: 2
Fore
SplineSet
302 298 m 0
 237 363 131 363 66 298 c 0
 2 234 2 127 66 63 c 0
 131 -2 237 -2 302 63 c 0
 366 127 366 234 302 298 c 0
318 313 m 0
 390 241 390 120 318 48 c 0
 243 -27 125 -27 50 48 c 0
 -22 120 -22 241 50 313 c 0
 125 388 243 388 318 313 c 0
249 106 m 0
 214 71 148 71 110 109 c 0
 71 148 71 220 111 260 c 0
 147 296 206 296 264 275 c 0
 264 224 l 0
 248 224 l 0
 245 241 243 252 236 260 c 0
 211 285 170 285 146 261 c 0
 111 226 111 150 147 114 c 0
 172 89 215 89 241 115 c 0
 246 120 251 127 255 133 c 0
 265 125 l 0
 261 119 255 112 249 106 c 0
EndSplineSet
EndChar

StartChar: ordfeminine
Encoding: 170 170 123
Width: 167
VWidth: 0
Flags: HMW
LayerCount: 2
Fore
SplineSet
107 292 m 0
 80 289 55 285 42 272 c 0
 32 262 32 245 42 235 c 0
 53 224 78 224 96 242 c 0
 108 254 107 269 107 292 c 0
136 247 m 0
 136 234 149 228 155 234 c 0
 163 242 170 232 158 220 c 0
 148 210 112 210 109 240 c 0
 89 204 33 204 13 224 c 0
 -1 238 -1 260 14 275 c 0
 32 293 65 297 107 304 c 0
 107 322 109 331 99 341 c 0
 88 352 51 352 41 342 c 0
 33 334 56 322 43 309 c 0
 35 301 23 301 17 307 c 0
 9 315 10 331 22 343 c 0
 46 367 105 367 126 346 c 0
 137 335 136 325 136 319 c 0
 136 247 l 0
7 162 m 0
 7 181 l 0
 139 181 l 0
 139 162 l 0
 7 162 l 0
EndSplineSet
EndChar

StartChar: guillemotleft
Encoding: 171 171 124
Width: 213
VWidth: 0
Flags: HMW
LayerCount: 2
Fore
SplineSet
131 146 m 0
 184 197 l 0
 190 203 202 203 187 181 c 0
 147 120 l 0
 187 59 l 0
 202 37 190 37 184 43 c 0
 131 94 l 0
 121 104 102 116 102 120 c 0
 102 124 121 136 131 146 c 0
101 43 m 0
 48 94 l 0
 38 104 19 116 19 120 c 0
 19 124 38 136 48 146 c 0
 101 197 l 0
 107 203 119 203 104 181 c 0
 64 120 l 0
 104 59 l 0
 119 37 107 37 101 43 c 0
EndSplineSet
EndChar

StartChar: logicalnot
Encoding: 172 172 125
Width: 303
VWidth: 0
Flags: HMW
LayerCount: 2
Fore
SplineSet
26 149 m 0
 26 187 l 0
 278 187 l 0
 278 52 l 0
 240 52 l 0
 240 149 l 0
 26 149 l 0
EndSplineSet
EndChar

StartChar: uni00AD
Encoding: 173 173 126
Width: 166
VWidth: 0
Flags: HMW
LayerCount: 2
Fore
SplineSet
21 139 m 0
 146 139 l 0
 146 101 l 0
 21 101 l 0
 21 139 l 0
EndSplineSet
EndChar

StartChar: registered
Encoding: 174 174 127
Width: 368
VWidth: 0
Flags: HMW
LayerCount: 2
Fore
SplineSet
66 298 m 0
 2 234 2 127 66 63 c 0
 131 -2 237 -2 302 63 c 0
 366 127 366 234 302 298 c 0
 237 363 131 363 66 298 c 0
50 313 m 0
 125 388 243 388 318 313 c 0
 390 241 390 120 318 48 c 0
 243 -27 125 -27 50 48 c 0
 -22 120 -22 241 50 313 c 0
200 181 m 0
 250 162 243 90 280 92 c 0
 280 84 l 0
 241 84 240 84 231 93 c 0
 211 113 212 148 193 167 c 0
 183 177 169 177 150 177 c 0
 150 112 l 0
 150 95 152 92 173 92 c 0
 173 84 l 0
 97 84 l 0
 97 92 l 0
 118 92 120 95 120 112 c 0
 120 258 l 0
 120 275 118 278 97 278 c 0
 97 286 l 0
 185 286 l 0
 213 286 230 281 243 268 c 0
 261 250 261 218 242 199 c 0
 231 188 213 183 200 181 c 0
150 186 m 0
 192 186 205 189 215 199 c 0
 231 215 231 249 215 265 c 0
 203 277 179 278 173 278 c 0
 152 278 150 275 150 258 c 0
 150 186 l 0
EndSplineSet
EndChar

StartChar: macron
Encoding: 175 175 128
Width: 166
VWidth: 0
Flags: HMW
LayerCount: 2
Fore
SplineSet
164 311 m 0
 164 284 l 0
 5 284 l 0
 5 311 l 0
 164 311 l 0
EndSplineSet
EndChar

StartChar: degree
Encoding: 176 176 129
Width: 200
VWidth: 0
Flags: HMW
LayerCount: 2
Fore
SplineSet
75 248 m 0
 93 229 127 229 146 248 c 0
 167 269 167 300 146 321 c 0
 127 340 93 340 75 321 c 0
 54 300 54 269 75 248 c 0
57 232 m 0
 28 261 28 308 57 337 c 0
 87 367 133 367 164 337 c 0
 193 308 193 261 164 232 c 0
 133 202 87 202 57 232 c 0
EndSplineSet
EndChar

StartChar: plusminus
Encoding: 177 177 130
Width: 303
VWidth: 0
Flags: HMW
LayerCount: 2
Fore
SplineSet
26 174 m 0
 133 174 l 0
 133 240 l 0
 171 240 l 0
 171 174 l 0
 278 174 l 0
 278 136 l 0
 171 136 l 0
 171 69 l 0
 133 69 l 0
 133 136 l 0
 26 136 l 0
 26 174 l 0
26 0 m 0
 26 38 l 0
 278 38 l 0
 278 0 l 0
 26 0 l 0
EndSplineSet
EndChar

StartChar: uni00B2
Encoding: 178 178 131
Width: 166
VWidth: 0
Flags: HMW
LayerCount: 2
Fore
SplineSet
42 171 m 0
 118 171 l 0
 130 171 145 166 148 201 c 0
 160 201 l 0
 155 144 l 0
 105 145 56 145 7 144 c 0
 7 153 l 0
 26 175 57 202 79 224 c 0
 131 276 131 309 108 332 c 0
 93 347 57 347 40 330 c 0
 15 305 41 302 47 296 c 0
 53 290 53 277 47 271 c 0
 40 264 27 264 17 274 c 0
 7 284 7 315 31 339 c 0
 54 362 110 362 141 331 c 0
 161 311 161 274 133 246 c 0
 108 221 75 205 42 171 c 0
EndSplineSet
EndChar

StartChar: uni00B3
Encoding: 179 179 132
Width: 166
VWidth: 0
Flags: HMW
LayerCount: 2
Fore
SplineSet
65 246 m 0
 51 246 51 260 64 260 c 0
 68 260 94 252 111 269 c 0
 127 285 127 318 113 332 c 0
 97 348 62 348 47 333 c 0
 28 314 66 309 49 292 c 0
 40 283 31 283 23 291 c 0
 14 300 14 320 32 338 c 0
 55 361 115 361 138 338 c 0
 157 319 157 287 138 268 c 0
 128 258 119 255 112 252 c 0
 126 249 134 246 141 239 c 0
 163 217 163 184 138 159 c 0
 111 132 48 132 23 157 c 0
 5 175 5 196 17 208 c 0
 25 216 36 216 42 210 c 0
 64 188 22 179 35 166 c 0
 53 148 96 148 111 163 c 0
 128 180 128 219 113 234 c 0
 95 252 71 246 65 246 c 0
EndSplineSet
EndChar

StartChar: acute
Encoding: 180 180 133
Width: 166
VWidth: 0
Flags: HMW
LayerCount: 2
Fore
SplineSet
119 339 m 0
 147 368 176 331 144 311 c 0
 66 264 l 0
 46 264 l 0
 119 339 l 0
EndSplineSet
EndChar

StartChar: mu
Encoding: 181 181 134
Width: 305
VWidth: 0
Flags: HMW
LayerCount: 2
Fore
SplineSet
69 19 m 0
 69 -44 83 -36 83 -71 c 0
 83 -114 39 -114 39 -71 c 0
 39 -47 54 -21 54 12 c 0
 54 183 l 0
 54 213 47 208 12 208 c 0
 12 226 l 0
 99 232 l 0
 99 70 l 0
 99 61 101 43 112 32 c 0
 130 14 157 14 179 36 c 0
 199 56 207 82 207 101 c 0
 207 183 l 0
 207 213 200 208 165 208 c 0
 165 226 l 0
 252 232 l 0
 252 49 l 0
 252 19 259 23 294 23 c 0
 294 6 l 0
 207 0 l 0
 207 44 l 0
 174 -21 94 -21 69 19 c 0
EndSplineSet
EndChar

StartChar: paragraph
Encoding: 182 182 135
Width: 303
VWidth: 0
Flags: HMW
LayerCount: 2
Fore
SplineSet
52 186 m 0
 16 222 16 294 51 329 c 0
 73 351 92 361 143 361 c 0
 279 361 l 0
 279 343 l 0
 246 343 246 339 246 317 c 0
 246 -30 l 0
 246 -52 246 -56 279 -56 c 0
 279 -74 l 0
 101 -74 l 0
 101 -56 l 0
 143 -56 143 -52 143 -30 c 0
 143 162 l 0
 114 156 78 160 52 186 c 0
89 255 m 0
 89 228 85 203 105 183 c 0
 117 171 131 173 143 176 c 0
 143 343 l 0
 127 343 116 340 105 329 c 0
 88 312 89 281 89 255 c 0
170 -56 m 0
 219 -56 l 0
 219 343 l 0
 170 343 l 0
 170 -56 l 0
EndSplineSet
EndChar

StartChar: periodcentered
Encoding: 183 183 136
Width: 139
VWidth: 0
Flags: HMW
LayerCount: 2
Fore
SplineSet
91 98 m 0
 79 86 59 86 47 98 c 0
 35 110 35 130 47 142 c 0
 59 154 79 154 91 142 c 0
 103 130 103 110 91 98 c 0
EndSplineSet
EndChar

StartChar: cedilla
Encoding: 184 184 137
Width: 166
VWidth: 0
Flags: HMW
LayerCount: 2
Fore
SplineSet
41 -55 m 0
 37 -51 l 0
 61 0 l 0
 78 0 l 0
 64 -31 l 0
 90 -31 100 -34 110 -44 c 0
 123 -57 123 -77 108 -92 c 0
 87 -113 42 -113 15 -97 c 0
 22 -83 l 0
 38 -91 66 -91 74 -83 c 0
 80 -77 80 -64 74 -58 c 0
 68 -52 49 -52 41 -55 c 0
EndSplineSet
EndChar

StartChar: uni00B9
Encoding: 185 185 138
Width: 166
VWidth: 0
Flags: HMW
LayerCount: 2
Fore
SplineSet
134 155 m 0
 148 155 l 0
 148 144 l 0
 20 144 l 0
 20 155 l 0
 39 155 l 0
 69 155 72 158 72 175 c 0
 72 300 l 0
 72 318 66 320 39 320 c 0
 20 320 l 0
 20 331 l 0
 33 331 66 333 92 354 c 0
 101 354 l 0
 101 175 l 0
 101 158 104 155 134 155 c 0
EndSplineSet
EndChar

StartChar: ordmasculine
Encoding: 186 186 139
Width: 150
VWidth: 0
Flags: HMW
LayerCount: 2
Fore
SplineSet
124 230 m 0
 99 205 50 205 26 229 c 0
 -4 259 -4 313 26 343 c 0
 50 367 99 367 124 342 c 0
 155 311 155 261 124 230 c 0
51 338 m 0
 35 322 35 250 51 234 c 0
 65 220 86 220 100 234 c 0
 116 250 116 322 100 338 c 0
 86 352 65 352 51 338 c 0
9 162 m 0
 9 181 l 0
 141 181 l 0
 141 162 l 0
 9 162 l 0
EndSplineSet
EndChar

StartChar: guillemotright
Encoding: 187 187 140
Width: 213
VWidth: 0
Flags: HMW
LayerCount: 2
Fore
SplineSet
165 146 m 0
 175 136 194 124 194 120 c 0
 194 116 175 104 165 94 c 0
 112 43 l 0
 106 37 94 37 109 59 c 0
 149 120 l 0
 109 181 l 0
 94 203 106 203 112 197 c 0
 165 146 l 0
29 43 m 0
 23 37 11 37 26 59 c 0
 66 120 l 0
 26 181 l 0
 11 203 23 203 29 197 c 0
 82 146 l 0
 92 136 111 124 111 120 c 0
 111 116 92 104 82 94 c 0
 29 43 l 0
EndSplineSet
EndChar

StartChar: onequarter
Encoding: 188 188 141
Width: 417
VWidth: 0
Flags: HMW
LayerCount: 2
Fore
SplineSet
72 300 m 0
 72 318 66 320 39 320 c 0
 20 320 l 0
 20 331 l 0
 33 331 66 333 92 354 c 0
 101 354 l 0
 101 175 l 0
 101 158 104 155 134 155 c 0
 148 155 l 0
 148 144 l 0
 20 144 l 0
 20 155 l 0
 39 155 l 0
 69 155 72 158 72 175 c 0
 72 300 l 0
388 11 m 0
 388 0 l 0
 299 0 l 0
 299 11 l 0
 327 11 332 15 332 31 c 0
 332 51 l 0
 238 51 l 0
 238 66 l 0
 349 210 l 0
 360 210 l 0
 360 66 l 0
 398 66 l 0
 398 51 l 0
 360 51 l 0
 360 31 l 0
 360 11 366 11 388 11 c 0
78 0 m 0
 334 353 l 0
 357 353 l 0
 101 0 l 0
 78 0 l 0
332 164 m 0
 256 66 l 0
 332 66 l 0
 332 164 l 0
EndSplineSet
EndChar

StartChar: onehalf
Encoding: 189 189 142
Width: 417
VWidth: 0
Flags: HMW
LayerCount: 2
Fore
SplineSet
80 300 m 0
 80 318 74 320 47 320 c 0
 28 320 l 0
 28 331 l 0
 41 331 74 333 100 354 c 0
 109 354 l 0
 109 175 l 0
 109 158 112 155 142 155 c 0
 156 155 l 0
 156 144 l 0
 28 144 l 0
 28 155 l 0
 47 155 l 0
 77 155 80 158 80 175 c 0
 80 300 l 0
384 102 m 0
 359 77 326 61 293 27 c 0
 369 27 l 0
 381 27 396 22 399 57 c 0
 411 57 l 0
 406 0 l 0
 356 1 307 1 258 0 c 0
 258 9 l 0
 277 31 308 58 330 80 c 0
 382 132 382 165 359 188 c 0
 344 203 308 203 291 186 c 0
 266 161 292 158 298 152 c 0
 304 146 304 133 298 127 c 0
 291 120 278 120 268 130 c 0
 258 140 258 171 282 195 c 0
 305 218 361 218 392 187 c 0
 412 167 412 130 384 102 c 0
86 0 m 0
 342 353 l 0
 365 353 l 0
 109 0 l 0
 86 0 l 0
EndSplineSet
EndChar

StartChar: threequarters
Encoding: 190 190 143
Width: 417
VWidth: 0
Flags: HMW
LayerCount: 2
Fore
SplineSet
47 333 m 0
 28 314 66 309 49 292 c 0
 40 283 31 283 23 291 c 0
 14 300 14 320 32 338 c 0
 55 361 115 361 138 338 c 0
 157 319 157 287 138 268 c 0
 128 258 119 255 112 252 c 0
 126 249 134 246 141 239 c 0
 163 217 163 184 138 159 c 0
 111 132 48 132 23 157 c 0
 5 175 5 196 17 208 c 0
 25 216 36 216 42 210 c 0
 64 188 22 179 35 166 c 0
 53 148 96 148 111 163 c 0
 128 180 128 219 113 234 c 0
 95 252 71 246 65 246 c 0
 51 246 51 260 64 260 c 0
 68 260 94 252 111 269 c 0
 127 285 127 318 113 332 c 0
 97 348 62 348 47 333 c 0
388 11 m 0
 388 0 l 0
 299 0 l 0
 299 11 l 0
 326 11 332 14 332 31 c 0
 332 51 l 0
 238 51 l 0
 238 66 l 0
 349 210 l 0
 360 210 l 0
 360 66 l 0
 398 66 l 0
 398 51 l 0
 360 51 l 0
 360 31 l 0
 360 13 363 11 388 11 c 0
332 66 m 0
 332 164 l 0
 256 66 l 0
 332 66 l 0
343 353 m 0
 366 353 l 0
 110 0 l 0
 87 0 l 0
 343 353 l 0
EndSplineSet
EndChar

StartChar: questiondown
Encoding: 191 191 144
Width: 222
VWidth: 0
Flags: HMW
LayerCount: 2
Fore
SplineSet
100 221 m 0
 88 233 88 253 100 265 c 0
 112 277 132 277 144 265 c 0
 156 253 156 233 144 221 c 0
 132 209 112 209 100 221 c 0
99 66 m 0
 53 16 52 -42 79 -69 c 0
 99 -89 141 -89 161 -69 c 0
 171 -59 171 -56 160 -45 c 0
 142 -27 142 -10 154 2 c 0
 165 13 182 13 194 2 c 0
 211 -16 211 -48 187 -72 c 0
 146 -113 72 -113 36 -77 c 0
 4 -45 4 13 42 51 c 0
 61 70 119 104 114 171 c 0
 130 171 l 0
 133 112 116 84 99 66 c 0
EndSplineSet
EndChar

StartChar: AE
Encoding: 198 198 151
Width: 500
VWidth: 0
Flags: HMW
LayerCount: 2
Fore
SplineSet
227 327 m 0
 130 157 l 0
 242 157 l 0
 242 334 l 0
 241 345 237 345 227 327 c 0
454 232 m 0
 447 263 441 299 420 320 c 0
 401 339 373 343 340 343 c 0
 307 343 296 336 296 309 c 0
 296 195 l 0
 338 195 366 204 372 261 c 0
 390 261 l 0
 390 101 l 0
 372 101 l 0
 366 170 338 175 296 175 c 0
 296 52 l 0
 296 25 307 18 340 18 c 0
 380 18 408 24 426 42 c 0
 449 65 458 99 464 131 c 0
 482 131 l 0
 473 0 l 0
 186 0 l 0
 186 18 l 0
 230 18 241 20 242 52 c 0
 242 134 l 0
 117 134 l 0
 81 72 l 0
 62 39 87 15 130 18 c 0
 130 0 l 0
 0 0 l 0
 0 18 l 0
 19 21 31 30 49 61 c 0
 180 288 l 0
 190 305 190 324 181 333 c 0
 170 344 153 343 131 343 c 0
 131 361 l 0
 467 361 l 0
 472 232 l 0
 454 232 l 0
EndSplineSet
EndChar

StartChar: Ccedilla
Encoding: 199 199 152
Width: 361
VWidth: 0
Flags: HMW
LayerCount: 2
Fore
SplineSet
189 -31 m 0
 215 -31 225 -34 235 -44 c 0
 248 -57 248 -77 233 -92 c 0
 212 -113 167 -113 140 -97 c 0
 147 -83 l 0
 163 -91 191 -91 199 -83 c 0
 205 -77 205 -64 199 -58 c 0
 193 -52 174 -52 166 -55 c 0
 162 -51 l 0
 182 -8 l 0
 142 -6 104 10 75 39 c 0
 4 110 4 246 81 323 c 0
 140 382 228 382 280 335 c 0
 301 369 l 0
 319 369 l 0
 324 220 l 0
 306 220 l 0
 296 250 284 295 257 322 c 0
 220 359 163 359 128 324 c 0
 68 264 68 95 121 42 c 0
 160 3 233 3 272 42 c 0
 297 67 306 97 312 126 c 0
 333 122 l 0
 325 84 314 54 289 29 c 0
 264 4 228 -7 199 -8 c 0
 189 -31 l 0
EndSplineSet
EndChar

StartChar: Eth
Encoding: 208 208 161
Width: 389
VWidth: 0
Flags: HMW
LayerCount: 2
Fore
SplineSet
125 52 m 0
 125 21 138 18 181 18 c 0
 218 18 245 21 265 41 c 0
 318 94 318 264 270 312 c 0
 246 336 211 343 168 343 c 0
 132 343 125 334 125 309 c 0
 125 194 l 0
 180 194 l 0
 180 170 l 0
 125 170 l 0
 125 52 l 0
15 343 m 0
 15 361 l 0
 197 361 l 0
 254 361 289 346 315 320 c 0
 384 251 384 111 313 40 c 0
 286 13 259 0 195 0 c 0
 15 0 l 0
 15 18 l 0
 66 18 70 24 71 52 c 0
 71 170 l 0
 21 170 l 0
 21 194 l 0
 71 194 l 0
 71 309 l 0
 70 337 66 343 15 343 c 0
EndSplineSet
EndChar

StartChar: multiply
Encoding: 215 215 168
Width: 303
VWidth: 0
Flags: HMW
LayerCount: 2
Fore
SplineSet
26 219 m 0
 53 246 l 0
 152 147 l 0
 251 246 l 0
 278 219 l 0
 178 120 l 0
 278 20 l 0
 251 -7 l 0
 152 92 l 0
 53 -7 l 0
 26 20 l 0
 126 120 l 0
 26 219 l 0
EndSplineSet
EndChar

StartChar: Oslash
Encoding: 216 216 169
Width: 389
VWidth: 0
Flags: HMW
LayerCount: 2
Fore
SplineSet
313 319 m 0
 385 245 385 113 310 38 c 0
 251 -21 150 -21 91 27 c 0
 44 -37 l 0
 15 -37 l 0
 75 44 l 0
 5 116 5 248 80 323 c 0
 139 382 238 382 296 335 c 0
 329 380 l 0
 358 380 l 0
 313 319 l 0
100 77 m 0
 277 309 l 0
 235 363 164 363 122 321 c 0
 73 272 73 133 100 77 c 0
289 287 m 0
 111 54 l 0
 153 -1 226 -1 268 41 c 0
 317 90 317 229 289 287 c 0
EndSplineSet
EndChar

StartChar: Thorn
Encoding: 222 222 175
Width: 333
VWidth: 0
Flags: HMW
LayerCount: 2
Fore
SplineSet
245 121 m 0
 274 150 274 218 248 244 c 0
 231 261 205 266 181 266 c 0
 130 266 126 260 125 232 c 0
 125 103 l 0
 205 95 229 105 245 121 c 0
200 284 m 0
 250 284 277 277 298 256 c 0
 336 218 336 154 295 113 c 0
 262 80 190 80 125 82 c 0
 125 52 l 0
 126 24 130 18 181 18 c 0
 181 0 l 0
 15 0 l 0
 15 18 l 0
 66 18 70 24 71 52 c 0
 71 309 l 0
 70 337 66 343 15 343 c 0
 15 361 l 0
 181 361 l 0
 181 343 l 0
 130 343 126 337 125 309 c 0
 125 284 l 0
 200 284 l 0
EndSplineSet
EndChar

StartChar: germandbls
Encoding: 223 223 176
Width: 287
VWidth: 0
Flags: HMW
LayerCount: 2
Fore
SplineSet
15 18 m 0
 55 18 54 21 54 44 c 0
 54 262 l 0
 54 295 60 319 81 340 c 0
 120 379 190 378 226 342 c 0
 260 308 260 223 186 205 c 0
 206 199 221 194 240 175 c 0
 276 139 276 51 240 15 c 0
 211 -14 162 -14 140 8 c 0
 124 24 124 46 134 56 c 0
 145 67 160 67 171 56 c 0
 187 40 164 19 172 11 c 0
 175 8 192 8 201 17 c 0
 227 43 227 150 195 182 c 0
 181 196 167 197 154 197 c 0
 131 197 131 215 154 215 c 0
 172 215 185 219 194 228 c 0
 212 246 212 320 190 342 c 0
 172 360 140 360 119 339 c 0
 100 320 99 297 99 261 c 0
 99 0 l 0
 15 0 l 0
 15 18 l 0
EndSplineSet
EndChar

StartChar: aring
Encoding: 229 229 182
Width: 278
VWidth: 0
Flags: HMW
LayerCount: 2
Fore
SplineSet
109 287 m 0
 121 275 143 275 155 287 c 0
 169 301 169 321 155 335 c 0
 143 347 121 347 109 335 c 0
 95 321 95 301 109 287 c 0
97 277 m 0
 78 296 78 326 97 345 c 0
 117 365 147 365 167 345 c 0
 186 326 186 296 167 277 c 0
 147 257 117 257 97 277 c 0
EndSplineSet
Refer: 65 97 N 1 0 0 1 0 0 0
EndChar

StartChar: ae
Encoding: 230 230 183
Width: 398
VWidth: 0
Flags: HMW
LayerCount: 2
Fore
SplineSet
216 133 m 0
 316 133 318 132 324 138 c 0
 334 148 327 191 311 207 c 0
 293 225 259 225 240 206 c 0
 223 189 216 155 216 133 c 0
171 124 m 0
 132 117 99 112 79 92 c 0
 62 75 62 44 78 28 c 0
 94 12 128 12 153 37 c 0
 170 54 171 62 171 124 c 0
160 207 m 0
 141 226 93 226 73 206 c 0
 70 203 97 176 79 158 c 0
 68 147 49 147 37 159 c 0
 28 168 28 193 41 206 c 0
 85 250 168 250 206 214 c 0
 251 249 308 249 346 211 c 0
 366 191 381 152 379 114 c 0
 216 114 l 0
 216 84 222 56 238 40 c 0
 267 11 312 11 347 46 c 0
 356 55 359 64 364 71 c 0
 379 61 l 0
 373 49 368 37 354 23 c 0
 312 -19 242 -19 198 24 c 0
 192 31 184 41 180 48 c 0
 176 38 167 24 158 15 c 0
 128 -15 59 -15 34 10 c 0
 11 33 11 69 37 95 c 0
 60 118 104 132 171 143 c 0
 171 179 173 194 160 207 c 0
EndSplineSet
EndChar

StartChar: ccedilla
Encoding: 231 231 184
Width: 222
VWidth: 0
Flags: HMW
LayerCount: 2
Fore
SplineSet
115 -8 m 0
 90 -4 69 2 48 23 c 0
 6 65 6 159 53 206 c 0
 97 250 158 250 192 216 c 0
 213 195 214 173 199 158 c 0
 187 146 170 146 158 158 c 0
 134 182 174 197 160 211 c 0
 147 224 114 224 94 204 c 0
 58 168 58 71 92 37 c 0
 114 15 152 15 178 41 c 0
 187 50 192 61 197 71 c 0
 213 63 l 0
 207 48 201 31 185 15 c 0
 171 1 153 -6 132 -8 c 0
 122 -31 l 0
 148 -31 158 -34 168 -44 c 0
 181 -57 181 -77 166 -92 c 0
 145 -113 100 -113 73 -97 c 0
 80 -83 l 0
 96 -91 124 -91 132 -83 c 0
 138 -77 138 -64 132 -58 c 0
 126 -52 107 -52 99 -55 c 0
 95 -51 l 0
 115 -8 l 0
EndSplineSet
EndChar

StartChar: igrave
Encoding: 236 236 189
Width: 157
VWidth: 0
Flags: HMW
LayerCount: 2
Fore
SplineSet
8 208 m 0
 8 226 l 0
 102 232 l 0
 102 44 l 0
 102 14 109 18 144 18 c 0
 144 0 l 0
 15 0 l 0
 15 18 l 0
 50 18 57 14 57 44 c 0
 57 174 l 0
 57 205 53 209 8 208 c 0
EndSplineSet
Refer: 64 96 N 1 0 0 1 4 0 0
EndChar

StartChar: eth
Encoding: 240 240 193
Width: 250
VWidth: 0
Flags: HMW
LayerCount: 2
Fore
SplineSet
92 24 m 0
 113 3 137 3 158 24 c 0
 197 63 197 169 158 208 c 0
 137 229 113 229 92 208 c 0
 53 169 53 63 92 24 c 0
66 357 m 0
 63 374 l 0
 100 362 129 342 143 328 c 0
 187 349 l 0
 196 333 l 0
 156 314 l 0
 250 204 250 73 199 22 c 0
 159 -18 91 -18 51 22 c 0
 6 67 6 165 51 210 c 0
 87 246 140 246 168 230 c 0
 162 253 143 286 130 301 c 0
 89 281 l 0
 80 297 l 0
 118 315 l 0
 106 330 89 344 66 357 c 0
EndSplineSet
EndChar

StartChar: divide
Encoding: 247 247 200
Width: 303
VWidth: 0
Flags: HMW
LayerCount: 2
Fore
SplineSet
174 188 m 0
 162 176 142 176 130 188 c 0
 118 200 118 220 130 232 c 0
 142 244 162 244 174 232 c 0
 186 220 186 200 174 188 c 0
174 45 m 0
 186 33 186 13 174 1 c 0
 162 -11 142 -11 130 1 c 0
 118 13 118 33 130 45 c 0
 142 57 162 57 174 45 c 0
26 139 m 0
 278 139 l 0
 278 101 l 0
 26 101 l 0
 26 139 l 0
EndSplineSet
EndChar

StartChar: oslash
Encoding: 248 248 201
Width: 250
VWidth: 0
Flags: HMW
LayerCount: 2
Fore
SplineSet
88 27 m 0
 115 1 135 1 162 28 c 0
 194 60 194 142 174 185 c 0
 88 27 l 0
89 205 m 0
 57 173 57 92 76 47 c 0
 161 205 l 0
 135 231 115 231 89 205 c 0
199 22 m 0
 163 -14 107 -14 75 4 c 0
 46 -51 l 0
 23 -51 l 0
 59 15 l 0
 4 57 4 163 51 210 c 0
 87 246 144 246 174 228 c 0
 201 278 l 0
 224 278 l 0
 191 217 l 0
 246 176 246 69 199 22 c 0
EndSplineSet
EndChar

StartChar: thorn
Encoding: 254 254 207
Width: 287
VWidth: 0
Flags: HMW
LayerCount: 2
Fore
SplineSet
195 29 m 0
 231 65 231 168 196 203 c 0
 178 221 148 221 129 202 c 0
 92 165 92 65 124 33 c 0
 146 11 177 11 195 29 c 0
229 20 m 0
 189 -20 137 -20 102 34 c 0
 102 -59 l 0
 102 -89 109 -85 144 -85 c 0
 144 -103 l 0
 15 -103 l 0
 15 -85 l 0
 50 -85 57 -89 57 -59 c 0
 57 284 l 0
 57 314 50 309 15 309 c 0
 15 327 l 0
 102 333 l 0
 102 194 l 0
 130 252 196 252 234 214 c 0
 280 168 280 71 229 20 c 0
EndSplineSet
EndChar

